<?xml version="1.0" encoding="UTF-8"?>
<svg version="1.1" xmlns="http://www.w3.org/2000/svg" width="1024" height="1024">
<path d="M0 0 C0.99 0.33 1.98 0.66 3 1 C2.67 2.98 2.34 4.96 2 7 C1.34 7 0.68 7 0 7 C-0.185625 8.423125 -0.185625 8.423125 -0.375 9.875 C-1 13 -1 13 -3 15 C-3 16.32 -3 17.64 -3 19 C-1.35 18.67 0.3 18.34 2 18 C1.42415568 20.38564077 0.77772405 22.66682784 0 25 C0.165 25.66 0.33 26.32 0.5 27 C1 29 1 29 0 32 C0.67546875 31.77183594 1.3509375 31.54367187 2.046875 31.30859375 C3.38492188 30.87740234 3.38492188 30.87740234 4.75 30.4375 C6.07257813 30.00244141 6.07257813 30.00244141 7.421875 29.55859375 C10.07834316 28.98302565 11.47031106 29.10751629 14 30 C14 30.66 14 31.32 14 32 C13.195625 32.7425 12.39125 33.485 11.5625 34.25 C7.66254845 38.43531386 7.83787838 42.48786495 8 48 C9.65 48.33 11.3 48.66 13 49 C12.54354081 53.74717553 11.9133314 56.30231015 9 60 C8.38125 61.85625 8.38125 61.85625 7.75 63.75 C6.27585747 67.83569452 4.15050852 70.45418322 1.21484375 73.61328125 C-1.56599649 76.60991862 -4.21919449 79.70515748 -6.875 82.8125 C-7.65375488 83.72008057 -7.65375488 83.72008057 -8.44824219 84.64599609 C-11.58089339 88.30597366 -14.65516017 92.00604276 -17.6875 95.75 C-21.24267904 100.13151795 -24.96769537 104.31710681 -28.765625 108.48828125 C-31.78690037 111.88457506 -34.62575933 115.4159298 -37.484375 118.94921875 C-40.42925052 122.52056624 -43.45720087 126.0121164 -46.5 129.5 C-50.99520733 134.65564063 -55.38623664 139.87511424 -59.69140625 145.19140625 C-62.91492463 149.1130809 -66.23068249 152.95284196 -69.55004883 156.79345703 C-72.69894106 160.44695685 -75.74652615 164.16244408 -78.75 167.9375 C-82.46174062 172.50012701 -86.37908864 176.36928393 -91 180 C-91.63164063 180.50660156 -92.26328125 181.01320313 -92.9140625 181.53515625 C-96.27909953 184.10547177 -97.646856 185 -102 185 C-102.66 184.01 -103.32 183.02 -104 182 C-104.33 182.99 -104.66 183.98 -105 185 C-104.01 185.99 -104.01 185.99 -103 187 C-102.734375 188.875 -102.734375 188.875 -102.75 191 C-102.74226562 192.051875 -102.74226562 192.051875 -102.734375 193.125 C-103 195 -103 195 -105 197 C-108.82065222 196.70610368 -110.45194972 195.75605439 -113 193 C-113.49628906 193.27714844 -113.99257813 193.55429687 -114.50390625 193.83984375 C-119.09318168 196.28687676 -122.81559721 197.56796643 -128 198 C-129.87560585 193.27788644 -130.21440223 189.13777349 -130.0625 184.125 C-129.9722237 178.64823799 -130.09836054 173.40983675 -131 168 C-131.67546875 168.42152344 -132.3509375 168.84304688 -133.046875 169.27734375 C-133.93890625 169.82519531 -134.8309375 170.37304688 -135.75 170.9375 C-136.63171875 171.48277344 -137.5134375 172.02804687 -138.421875 172.58984375 C-141 174 -141 174 -143.203125 174.50390625 C-145.40691796 174.90142033 -145.40691796 174.90142033 -147 178 C-149.625 178.1875 -149.625 178.1875 -152 178 C-151.14015996 174.39029416 -150.00901687 170.9228884 -148.796875 167.41796875 C-147.98417412 165.05305528 -147.98417412 165.05305528 -147.453125 162.80078125 C-145.78646866 156.52829761 -142.39552656 152.60497943 -138.18359375 147.74609375 C-136.17516123 145.22028326 -134.95107001 143.06697244 -133.6875 140.125 C-130.9467855 134.14094861 -126.54724153 129.91021198 -122.046875 125.21875 C-118.59269317 121.61475855 -115.47586448 117.77789485 -112.3515625 113.88671875 C-109.08905302 109.88174448 -105.70331366 105.98713649 -102.32275391 102.08178711 C-98.80985885 98.0027174 -95.48264462 93.82451378 -92.3046875 89.4765625 C-91.87414062 88.98929687 -91.44359375 88.50203125 -91 88 C-90.34 88 -89.68 88 -89 88 C-88.77054688 87.46117187 -88.54109375 86.92234375 -88.3046875 86.3671875 C-86.61098172 83.29417641 -84.41175499 80.76301077 -82.125 78.125 C-81.6395874 77.55837646 -81.1541748 76.99175293 -80.65405273 76.40795898 C-79.6254582 75.20812412 -78.5950612 74.00983243 -77.56298828 72.81298828 C-76.04703134 71.054554 -74.53625939 69.29182168 -73.02734375 67.52734375 C-69.51675728 63.42345137 -65.99804157 59.32655707 -62.47949219 55.22949219 C-60.96512367 53.46581284 -59.45115218 51.70179416 -57.9375 49.9375 C-57.44362793 49.36185303 -56.94975586 48.78620605 -56.44091797 48.19311523 C-53.48177446 44.7401337 -50.5363906 41.27597002 -47.6027832 37.80126953 C-46.22508899 36.16952062 -44.84534731 34.53952867 -43.46484375 32.91015625 C-41.97421397 31.15022093 -40.4863934 29.3878935 -39.00390625 27.62109375 C-33.42258006 21.07018305 -28.65888806 15.76712001 -20 14 C-19.67 14.99 -19.34 15.98 -19 17 C-15.38317647 16.44175115 -14.02083171 15.25399273 -11.75 12.4375 C-8.07484592 8.02890953 -4.10379878 4.00786583 0 0 Z M-101 178 C-101 178.66 -101 179.32 -101 180 C-101.99 180.495 -101.99 180.495 -103 181 C-102.01 181 -101.02 181 -100 181 C-100.33 180.01 -100.66 179.02 -101 178 Z " fill="#EF7630" transform="translate(622,418)"/>
<path d="M0 0 C1.32 0 2.64 0 4 0 C4.99 2.97 4.99 2.97 6 6 C6.680625 5.54625 7.36125 5.0925 8.0625 4.625 C11.30435186 2.83163514 14.4203441 1.91246131 18 1 C18.12375 1.639375 18.2475 2.27875 18.375 2.9375 C18.58125 3.618125 18.7875 4.29875 19 5 C19.99 5.495 19.99 5.495 21 6 C21 9.63 21 13.26 21 17 C22.32 17 23.64 17 25 17 C25.89039751 20.70324421 26.06049225 23.89431966 25.75 27.6875 C25.68296875 28.64011719 25.6159375 29.59273438 25.546875 30.57421875 C25 33 25 33 22 35 C20.40195136 37.31717053 19.99002852 38.61111238 20.0625 41.4375 C21.30323754 44.82884927 23.34239175 46.61496696 26 49 C25.05725578 52.0210667 24.04054374 55.01130168 23 58 C22.66935547 59.04414063 22.66935547 59.04414063 22.33203125 60.109375 C19.52584763 67.68749522 13.92447843 73.25789947 8.62011719 79.18261719 C6.08429668 82.02719944 3.60351295 84.91799835 1.125 87.8125 C0.39120117 88.66654419 0.39120117 88.66654419 -0.35742188 89.5378418 C-4.9082355 94.85178507 -9.34387041 100.25799702 -13.77758789 105.66967773 C-18.05289116 110.87796795 -22.40878122 116.00933671 -26.81030273 121.11108398 C-30.52004485 125.41826821 -34.12963525 129.79937423 -37.71484375 134.2109375 C-43.7161394 141.53559578 -49.86410868 148.74004639 -56.125 155.84375 C-58.12027443 158.1383156 -60.08640533 160.45560728 -62.04760742 162.77929688 C-63.48334732 164.48027096 -64.92326212 166.17764848 -66.36328125 167.875 C-67.92234803 169.7150646 -69.45940057 171.56541609 -70.98046875 173.4375 C-74.73599348 177.97506763 -78.64108258 181.43757512 -84 184 C-84.66 184 -85.32 184 -86 184 C-86.98120464 180.94736336 -86.98120464 179.05263664 -86 176 C-89.88125791 178.0713449 -92.19102508 180.17196416 -94.8125 183.6875 C-105.71042388 197.60017666 -105.71042388 197.60017666 -115.09375 198.84375 C-115.7228125 198.8953125 -116.351875 198.946875 -117 199 C-117 197.68 -117 196.36 -117 195 C-116.21625 194.814375 -115.4325 194.62875 -114.625 194.4375 C-113.75875 193.963125 -112.8925 193.48875 -112 193 C-111.690625 191.88625 -111.38125 190.7725 -111.0625 189.625 C-109.73366517 185.09132823 -107.96332213 184.32629777 -104 182 C-104 181.34 -104 180.68 -104 180 C-104.66 179.67 -105.32 179.34 -106 179 C-105.98839844 178.43152344 -105.97679687 177.86304688 -105.96484375 177.27734375 C-105.90776806 172.39329516 -106.18043228 167.81496035 -107 163 C-109.97017694 163.62810173 -109.97017694 163.62810173 -113 165 C-113.68753301 166.65816784 -114.35561283 168.32459336 -115 170 C-117.45884972 170.79912616 -119.43090798 171 -122 171 C-124.0485311 171.97424834 -126.03014174 173.04987069 -128.02734375 174.125 C-130 175 -130 175 -133 175 C-133.433125 175.495 -133.86625 175.99 -134.3125 176.5 C-136 178 -136 178 -139.1875 178.1875 C-140.115625 178.125625 -141.04375 178.06375 -142 178 C-140.76448756 174.29346269 -139.03334922 173.35084565 -136 171 C-134.65327361 168.30654723 -134.63290539 165.80639556 -134.3125 162.8125 C-133.50735654 157.33271764 -132.46493307 154.53557906 -128.55078125 150.71484375 C-126.74884708 148.72227675 -125.92846773 146.84098251 -124.875 144.375 C-122.02054295 138.30697679 -117.63348328 134.00072678 -113.046875 129.21875 C-109.58641692 125.6082101 -106.46534848 121.76266298 -103.33203125 117.8671875 C-100.66960254 114.59378268 -97.93863992 111.38635629 -95.1875 108.1875 C-94.68307373 107.6006543 -94.17864746 107.01380859 -93.65893555 106.40917969 C-91.58699847 104.00094245 -89.51268081 101.59476104 -87.43847656 99.18847656 C-82.41838502 93.36164087 -77.40626351 87.53765352 -72.5625 81.5625 C-68.99948296 77.17477016 -65.33487679 72.88822715 -61.625 68.625 C-53.27615249 59.02985777 -45.07577149 49.32619577 -37 39.5 C-35.23079347 37.3521085 -33.46119928 35.20453717 -31.69140625 33.05712891 C-30.59237386 31.72045931 -29.49587198 30.38170362 -28.40234375 29.04052734 C-26.9420431 27.25016514 -25.47217971 25.46809725 -24 23.6875 C-23.175 22.68074219 -22.35 21.67398437 -21.5 20.63671875 C-18.17816647 17.13322245 -15.05242579 14.17847181 -10.125 13.75 C-9.42375 13.8325 -8.7225 13.915 -8 14 C-8 14.66 -8 15.32 -8 16 C-6.35 16.33 -4.7 16.66 -3 17 C-0.97038535 14.75701561 -0.00958944 13.60701146 0.0390625 10.52734375 C-0.09757813 9.67269531 -0.23421875 8.81804687 -0.375 7.9375 C-0.88030707 4.64309607 -1.07607775 3.22823324 0 0 Z M16 8 C15.01 9.485 15.01 9.485 14 11 C13.34 11 12.68 11 12 11 C11.34 12.98 10.68 14.96 10 17 C11.32 17 12.64 17 14 17 C14.33 16.01 14.66 15.02 15 14 C15.99 13.34 16.98 12.68 18 12 C17.34 10.68 16.68 9.36 16 8 Z M16 19 C13.33883288 21.66116712 13.0048225 22.90354991 12.8125 26.75 C12.874375 27.8225 12.93625 28.895 13 30 C16.11771927 31.60339848 17.39011689 32.18974141 20.8125 31.125 C21.534375 30.75375 22.25625 30.3825 23 30 C23 29.34 23 28.68 23 28 C22.38125 27.814375 21.7625 27.62875 21.125 27.4375 C17.94397134 25.28562767 17.80548053 22.62466237 17 19 C16.67 19 16.34 19 16 19 Z " fill="#D32470" transform="translate(562,365)"/>
<path d="M0 0 C0.99 0.33 1.98 0.66 3 1 C2.53335938 2.14855469 2.06671875 3.29710937 1.5859375 4.48046875 C-0.00732223 8.72698222 -0.74493033 12.83926253 -1.375 17.3125 C-2.36471046 23.56255215 -3.8653347 28.84448637 -6.75390625 34.52734375 C-7.98867493 36.97752736 -8.93578389 39.42420989 -9.875 42 C-14.9659151 54.86983339 -24.51099014 65.34680426 -33.71875 75.4375 C-36.04028821 78.04525525 -38.24530355 80.72041144 -40.4375 83.4375 C-43.51336588 87.24087503 -46.68753166 90.90082652 -50 94.5 C-54.04002083 98.89429958 -57.84632449 103.42113347 -61.59765625 108.0625 C-64.28948539 111.35397238 -67.04073079 114.58835167 -69.8125 117.8125 C-70.31676514 118.39918457 -70.82103027 118.98586914 -71.34057617 119.59033203 C-73.41271556 121.99869793 -75.48716935 124.40506514 -77.56152344 126.81152344 C-88.50559927 139.35753583 -88.50559927 139.35753583 -98.79296875 152.43359375 C-102.89967775 158.00631329 -107.33798973 162.02829683 -113 166 C-114.5778125 167.11375 -114.5778125 167.11375 -116.1875 168.25 C-119 170 -119 170 -121.8125 171.375 C-125.45347589 173.23118379 -128.70136945 175.45452864 -132.046875 177.79296875 C-134 179 -134 179 -136 179 C-136.66 180.32 -137.32 181.64 -138 183 C-142.08378077 183 -145.12315913 182.19287411 -149 181 C-149.75 179.3125 -149.75 179.3125 -150 177 C-148.25 174.25 -148.25 174.25 -146 172 C-145.01 172 -144.02 172 -143 172 C-141.3125 174 -141.3125 174 -140 176 C-138.18397483 171.46167247 -138.18397483 171.46167247 -139 167 C-142.95820859 167.56545837 -145.6659053 168.80902348 -149 171 C-149 170.34 -149 169.68 -149 169 C-151.64 169 -154.28 169 -157 169 C-157.33 169.99 -157.66 170.98 -158 172 C-160.0625 172.6875 -160.0625 172.6875 -162 173 C-161.67 173.99 -161.34 174.98 -161 176 C-159.35 176 -157.7 176 -156 176 C-156 177.32 -156 178.64 -156 180 C-156.66 180 -157.32 180 -158 180 C-158 180.66 -158 181.32 -158 182 C-159.0828125 182.3403125 -159.0828125 182.3403125 -160.1875 182.6875 C-163.181551 183.88964547 -163.181551 183.88964547 -165.5625 186.5625 C-167.88863655 188.88863655 -168.82090906 189.64676767 -172 190 C-172.75 187.875 -172.75 187.875 -173 185 C-170.10843373 179.43105756 -170.10843373 179.43105756 -166.75 178.125 C-166.1725 178.08375 -165.595 178.0425 -165 178 C-165.66 177.34 -166.32 176.68 -167 176 C-167.40047444 173.67724823 -167.7397104 171.34260643 -168 169 C-166.68 168.67 -165.36 168.34 -164 168 C-163.67 166.02 -163.34 164.04 -163 162 C-163.61875 162.495 -164.2375 162.99 -164.875 163.5 C-167 165 -167 165 -169 165 C-169.8125 162.3125 -169.8125 162.3125 -170 159 C-169.236875 158.2575 -168.47375 157.515 -167.6875 156.75 C-164.80435014 153.79980015 -164.6525694 153.21958623 -164.125 149.375 C-162.39898514 138.863414 -154.76682892 131.37626578 -147.69921875 123.91015625 C-144.58578398 120.55341399 -141.77766091 117.02768511 -138.95703125 113.42578125 C-136.9080801 110.88606336 -134.7609817 108.4736155 -132.5625 106.0625 C-125.87743216 98.72158213 -119.67346286 91.00060975 -113.703125 83.0703125 C-111.62440178 80.54342419 -109.31361889 78.31361889 -107 76 C-105.08390022 73.86799187 -103.22849266 71.68648473 -101.375 69.5 C-100.59286133 68.58250977 -100.59286133 68.58250977 -99.79492188 67.64648438 C-96.35356257 63.6059041 -92.92666749 59.55304087 -89.5 55.5 C-87.66742148 53.33269338 -85.83416187 51.16596685 -84 49 C-83.5153125 48.42749512 -83.030625 47.85499023 -82.53125 47.26513672 C-79.04596278 43.15472148 -75.53269091 39.06971597 -72 35 C-71.2879541 34.17290527 -71.2879541 34.17290527 -70.56152344 33.32910156 C-64.64123988 26.48415727 -58.64299168 20.89096972 -51 16 C-49.96939453 15.17242187 -49.96939453 15.17242187 -48.91796875 14.328125 C-46.25508724 12.48417446 -44.15824112 12.78466538 -41 13 C-41 13.66 -41 14.32 -41 15 C-40.30777344 14.40251953 -40.30777344 14.40251953 -39.6015625 13.79296875 C-35.73911607 10.65568519 -32.54338003 8.66394841 -27.6875 7.4375 C-23.71426604 6.51180847 -23.71426604 6.51180847 -21.1875 3.3125 C-20.795625 2.549375 -20.40375 1.78625 -20 1 C-17.3125 0.6875 -17.3125 0.6875 -15 1 C-15.66 2.65 -16.32 4.3 -17 6 C-13.69541929 6 -11.58993716 5.26296073 -8.5 4.125 C-7.5409375 3.77695312 -6.581875 3.42890625 -5.59375 3.0703125 C-2.83362017 2.03018324 -2.83362017 2.03018324 0 0 Z M-157 153 C-156 155 -156 155 -156 155 Z M-161 157 C-160.67 158.32 -160.34 159.64 -160 161 C-159.67 159.68 -159.34 158.36 -159 157 C-159.66 157 -160.32 157 -161 157 Z " fill="#333678" transform="translate(550,324)"/>
<path d="M0 0 C1.39304559 2.78609117 1.40140586 5.75118176 0.4375 8.75 C-0.18708412 11.9621469 0.44664191 14.80281993 1 18 C0.34 18 -0.32 18 -1 18 C-1 19.32 -1 20.64 -1 22 C-0.34 22 0.32 22 1 22 C1.33 21.01 1.66 20.02 2 19 C2.99 19 3.98 19 5 19 C4.38619697 22.11039513 3.34990882 24.20829308 1.5625 26.8125 C-0.82564261 30.49134396 -2.02337563 33.73836637 -3 38 C1.84832047 33.97022714 6.17905915 29.79890302 10.265625 25 C12.05603862 22.93537889 13.90399642 20.95582186 15.8125 19 C16.37582031 18.4225 16.93914063 17.845 17.51953125 17.25 C19 16 19 16 21 16 C20.9131252 17.95917659 20.80495488 19.91741871 20.6875 21.875 C20.60048828 23.51082031 20.60048828 23.51082031 20.51171875 25.1796875 C20.34285156 26.11039063 20.17398438 27.04109375 20 28 C17 30 17 30 13 30 C12.34 29.01 11.68 28.02 11 27 C10.67 27.99 10.34 28.98 10 30 C10.66 30.66 11.32 31.32 12 32 C12.265625 33.875 12.265625 33.875 12.25 36 C12.25515625 36.70125 12.2603125 37.4025 12.265625 38.125 C12 40 12 40 10 42 C6.17934778 41.70610368 4.54805028 40.75605439 2 38 C1.50371094 38.27714844 1.00742187 38.55429687 0.49609375 38.83984375 C-4.09318168 41.28687676 -7.81559721 42.56796643 -13 43 C-14.90543644 38.22520044 -15.21876566 34.00903095 -15.0625 28.9375 C-14.89478264 23.52551837 -14.89478264 23.52551837 -15.6484375 18.1796875 C-15.82246094 17.10074219 -15.82246094 17.10074219 -16 16 C-13.5625 13.1875 -13.5625 13.1875 -11 11 C-11.99 11 -12.98 11 -14 11 C-13.25 9.0625 -13.25 9.0625 -12 7 C-10.0625 6.4375 -10.0625 6.4375 -8 6 C-6.97895449 5.02149805 -5.9793879 4.02019573 -5 3 C-3.68252676 2.30251417 -2.35085807 1.63040043 -1 1 C-0.67 0.67 -0.34 0.34 0 0 Z M14 23 C14 23.66 14 24.32 14 25 C13.01 25.495 13.01 25.495 12 26 C12.99 26 13.98 26 15 26 C14.67 25.01 14.34 24.02 14 23 Z " fill="#F6F3EF" transform="translate(507,573)"/>
<path d="M0 0 C1.32 0 2.64 0 4 0 C4.66 1.98 5.32 3.96 6 6 C6.680625 5.54625 7.36125 5.0925 8.0625 4.625 C11.30435186 2.83163514 14.4203441 1.91246131 18 1 C18.12375 1.639375 18.2475 2.27875 18.375 2.9375 C18.58125 3.618125 18.7875 4.29875 19 5 C19.66 5.33 20.32 5.66 21 6 C21 9.63 21 13.26 21 17 C22.32 17 23.64 17 25 17 C26.26959657 22.41300863 26.41812131 27.59234466 25 33 C22.15972469 35.11509863 20.53276772 36 17 36 C17 35.01 17 34.02 17 33 C14.69 34.65 12.38 36.3 10 38 C10.66 34.7 11.32 31.4 12 28 C11.34 28 10.68 28 10 28 C10.66 26.02 11.32 24.04 12 22 C11.01 22 10.02 22 9 22 C8.19032562 19.08517222 7.78154007 17.53886783 8.9375 14.6875 C9.4634375 13.8521875 9.4634375 13.8521875 10 13 C10.33 14.32 10.66 15.64 11 17 C11.66 17 12.32 17 13 17 C13.28875 16.360625 13.5775 15.72125 13.875 15.0625 C15 13 15 13 17 12 C16.505 11.01 16.505 11.01 16 10 C15.34 10.66 14.68 11.32 14 12 C13.34 11.67 12.68 11.34 12 11 C12.54723683 7.62537285 13.0549 5.91765 15 3 C14.030625 3.78375 13.06125 4.5675 12.0625 5.375 C11.24458984 6.03628906 11.24458984 6.03628906 10.41015625 6.7109375 C8.86733563 7.9666391 8.86733563 7.9666391 8 10 C6.35 10 4.7 10 3 10 C2.9175 10.556875 2.835 11.11375 2.75 11.6875 C1.36159692 15.96840948 -1.32027316 18.54684877 -5 21 C-7.6875 21.125 -7.6875 21.125 -10 21 C-9.67 19.02 -9.34 17.04 -9 15 C-9.99 15.66 -10.98 16.32 -12 17 C-12.99 17 -13.98 17 -15 17 C-15.33 17.99 -15.66 18.98 -16 20 C-17.32 19.67 -18.64 19.34 -20 19 C-13.92560175 14.09846827 -13.92560175 14.09846827 -10.0625 13.6875 C-9.381875 13.790625 -8.70125 13.89375 -8 14 C-8 14.66 -8 15.32 -8 16 C-6.35 16.33 -4.7 16.66 -3 17 C-0.97038535 14.75701561 -0.00958944 13.60701146 0.0390625 10.52734375 C-0.09757813 9.67269531 -0.23421875 8.81804687 -0.375 7.9375 C-0.88030707 4.64309607 -1.07607775 3.22823324 0 0 Z M16 19 C13.33883288 21.66116712 13.0048225 22.90354991 12.8125 26.75 C12.874375 27.8225 12.93625 28.895 13 30 C16.11771927 31.60339848 17.39011689 32.18974141 20.8125 31.125 C21.534375 30.75375 22.25625 30.3825 23 30 C23 29.34 23 28.68 23 28 C22.38125 27.814375 21.7625 27.62875 21.125 27.4375 C17.94397134 25.28562767 17.80548053 22.62466237 17 19 C16.67 19 16.34 19 16 19 Z " fill="#EAE6E7" transform="translate(562,365)"/>
<path d="M0 0 C0.99 0.33 1.98 0.66 3 1 C2.67 2.98 2.34 4.96 2 7 C1.34 7 0.68 7 0 7 C-0.185625 8.423125 -0.185625 8.423125 -0.375 9.875 C-1 13 -1 13 -3 15 C-3 16.32 -3 17.64 -3 19 C-1.35 18.67 0.3 18.34 2 18 C1.42415568 20.38564077 0.77772405 22.66682784 0 25 C0.2475 25.99 0.2475 25.99 0.5 27 C1 29 1 29 0 32 C1.01320313 31.65775391 1.01320313 31.65775391 2.046875 31.30859375 C2.93890625 31.02113281 3.8309375 30.73367188 4.75 30.4375 C5.63171875 30.14746094 6.5134375 29.85742188 7.421875 29.55859375 C10.07834316 28.98302565 11.47031106 29.10751629 14 30 C14 30.66 14 31.32 14 32 C12.7934375 33.11375 12.7934375 33.11375 11.5625 34.25 C7.66254845 38.43531386 7.83787838 42.48786495 8 48 C9.32 48.33 10.64 48.66 12 49 C9.525 49.495 9.525 49.495 7 50 C6.71125 49.030625 6.4225 48.06125 6.125 47.0625 C5.35785318 43.89335797 5.35785318 43.89335797 3 43 C3.66 42.01 4.32 41.02 5 40 C5.16699232 36.87478167 5.16699232 36.87478167 5 34 C3.88625 34.680625 3.88625 34.680625 2.75 35.375 C0.53069422 36.68640796 -1.67967822 37.88280803 -4 39 C-3.46274105 35.62294375 -2.88935377 32.303314 -2 29 C-2.66 29 -3.32 29 -4 29 C-4 28.01 -4 27.02 -4 26 C-4.66 26 -5.32 26 -6 26 C-6 25.34 -6 24.68 -6 24 C-6.66 24 -7.32 24 -8 24 C-8 23.01 -8 22.02 -8 21 C-8.66 20.67 -9.32 20.34 -10 20 C-10.33 19.67 -10.66 19.34 -11 19 C-12.051875 19.7425 -12.051875 19.7425 -13.125 20.5 C-16.37119719 22.1936681 -18.39340156 22.25162315 -22 22 C-22 20.68 -22 19.36 -22 18 C-25.86648272 19.04097612 -29.49461443 20.03698408 -33 22 C-29.67635324 16.65326391 -25.80054339 15.52450179 -20 14 C-19.67 14.99 -19.34 15.98 -19 17 C-15.38317647 16.44175115 -14.02083171 15.25399273 -11.75 12.4375 C-8.07484592 8.02890953 -4.10379878 4.00786583 0 0 Z " fill="#EEAA56" transform="translate(622,418)"/>
<path d="M0 0 C1.39304559 2.78609117 1.40140586 5.75118176 0.4375 8.75 C-0.18708412 11.9621469 0.44664191 14.80281993 1 18 C0.34 18 -0.32 18 -1 18 C-1 19.32 -1 20.64 -1 22 C-0.34 22 0.32 22 1 22 C1.33 21.01 1.66 20.02 2 19 C2.99 19 3.98 19 5 19 C4.43628586 22.26954202 3.50037734 23.82575883 1 26 C1 25.01 1 24.02 1 23 C-0.5159375 23.2475 -0.5159375 23.2475 -2.0625 23.5 C-5.76262933 23.96985769 -9.27607391 24.07599849 -13 24 C-13.05416188 22.39620659 -13.09286638 20.79188594 -13.125 19.1875 C-13.14820313 18.29417969 -13.17140625 17.40085937 -13.1953125 16.48046875 C-13 14 -13 14 -11 11 C-11.99 11 -12.98 11 -14 11 C-13.25 9.0625 -13.25 9.0625 -12 7 C-10.0625 6.4375 -10.0625 6.4375 -8 6 C-6.97895449 5.02149805 -5.9793879 4.02019573 -5 3 C-3.68252676 2.30251417 -2.35085807 1.63040043 -1 1 C-0.67 0.67 -0.34 0.34 0 0 Z " fill="#EAE3E1" transform="translate(507,573)"/>
<path d="M0 0 C-0.309375 0.5775 -0.61875 1.155 -0.9375 1.75 C-1.92583364 3.84294184 -2.5168613 5.74535275 -3 8 C-1.68 7.34 -0.36 6.68 1 6 C2.60700789 10.82102367 1.17818553 13.5629554 -1 18 C-1.391875 18.804375 -1.78375 19.60875 -2.1875 20.4375 C-2.455625 20.953125 -2.72375 21.46875 -3 22 C-2.01 21.67 -1.02 21.34 0 21 C0.33 21.99 0.66 22.98 1 24 C2.65 24 4.3 24 6 24 C6 25.32 6 26.64 6 28 C5.34 28 4.68 28 4 28 C4 28.66 4 29.32 4 30 C3.278125 30.226875 2.55625 30.45375 1.8125 30.6875 C-1.181551 31.88964547 -1.181551 31.88964547 -3.5625 34.5625 C-5.88863655 36.88863655 -6.82090906 37.64676767 -10 38 C-10.75 35.875 -10.75 35.875 -11 33 C-8.10843373 27.43105756 -8.10843373 27.43105756 -4.75 26.125 C-4.1725 26.08375 -3.595 26.0425 -3 26 C-3.66 25.34 -4.32 24.68 -5 24 C-5.40047444 21.67724823 -5.7397104 19.34260643 -6 17 C-4.68 16.67 -3.36 16.34 -2 16 C-1.67 14.02 -1.34 12.04 -1 10 C-1.61875 10.495 -2.2375 10.99 -2.875 11.5 C-5 13 -5 13 -7 13 C-7.875 10.4375 -7.875 10.4375 -8 7 C-3.71057884 0 -3.71057884 0 0 0 Z " fill="#DBDCE2" transform="translate(388,476)"/>
<path d="M0 0 C-0.0868748 1.95917659 -0.19504512 3.91741871 -0.3125 5.875 C-0.37050781 6.96554687 -0.42851563 8.05609375 -0.48828125 9.1796875 C-0.65714844 10.11039063 -0.82601562 11.04109375 -1 12 C-4 14 -4 14 -8 14 C-8.66 13.01 -9.32 12.02 -10 11 C-10.33 11.99 -10.66 12.98 -11 14 C-10.34 14.66 -9.68 15.32 -9 16 C-8.734375 17.875 -8.734375 17.875 -8.75 20 C-8.74484375 20.70125 -8.7396875 21.4025 -8.734375 22.125 C-9 24 -9 24 -11 26 C-13.95662966 25.77256695 -15.55033688 25.38764062 -17.8125 23.4375 C-18.204375 22.963125 -18.59625 22.48875 -19 22 C-19.99 22.66 -20.98 23.32 -22 24 C-23.32 24 -24.64 24 -26 24 C-24.80541612 21.61083224 -23.69408262 20.99754845 -21.5 19.5 C-17.10309409 16.28505804 -13.68825573 12.50151174 -10.11328125 8.4140625 C-2.74757282 0 -2.74757282 0 0 0 Z M-7 7 C-7 7.66 -7 8.32 -7 9 C-7.99 9.495 -7.99 9.495 -9 10 C-8.01 10 -7.02 10 -6 10 C-6.33 9.01 -6.66 8.02 -7 7 Z " fill="#F4E6DD" transform="translate(528,589)"/>
<path d="M0 0 C0.66 1.32 1.32 2.64 2 4 C1.50628906 4.66386719 1.01257813 5.32773437 0.50390625 6.01171875 C-0.45708984 7.33623047 -0.45708984 7.33623047 -1.4375 8.6875 C-2.07558594 9.55761719 -2.71367187 10.42773438 -3.37109375 11.32421875 C-4.98971649 13.98310742 -5.6083962 15.93887169 -6 19 C-2.58875982 17.58845234 -1.1543777 15.93778777 1 13 C1.66 13 2.32 13 3 13 C3 13.99 3 14.98 3 16 C-2.25714286 20 -2.25714286 20 -5 20 C-5.66 21.32 -6.32 22.64 -7 24 C-11.08378077 24 -14.12315913 23.19287411 -18 22 C-18.75 20.3125 -18.75 20.3125 -19 18 C-17.25 15.25 -17.25 15.25 -15 13 C-14.01 13 -13.02 13 -12 13 C-10.3125 15 -10.3125 15 -9 17 C-7.71514394 13.71295284 -7.71514394 13.71295284 -7 10 C-8.22338275 7.55853994 -8.22338275 7.55853994 -10 6 C-5.25 4 -5.25 4 -3 4 C-1.36323743 2.0399719 -1.36323743 2.0399719 0 0 Z " fill="#706795" transform="translate(419,483)"/>
<path d="M0 0 C0.66 1.32 1.32 2.64 2 4 C1.01 5.485 1.01 5.485 0 7 C0 7.99 0 8.98 0 10 C-1.3125 12.04296875 -1.3125 12.04296875 -3 14.1875 C-3.556875 14.90292969 -4.11375 15.61835937 -4.6875 16.35546875 C-5.120625 16.89816406 -5.55375 17.44085937 -6 18 C-5.34 18 -4.68 18 -4 18 C-4.48421053 25.26315789 -4.48421053 25.26315789 -6.75 28.5 C-9.40400921 30.26933948 -10.87193116 30.3475632 -14 30 C-13.1412742 26.39497186 -12.01029206 22.93168169 -10.8046875 19.4296875 C-10.28663858 17.86548153 -9.80905773 16.28698772 -9.3828125 14.6953125 C-7.63968667 8.47601171 -4.52607941 4.55087984 0 0 Z " fill="#F1F1EE" transform="translate(484,566)"/>
<path d="M0 0 C1.69787432 2.59674896 2.02157276 3.79721609 1.6875 6.9375 C1.460625 7.948125 1.23375 8.95875 1 10 C0.814375 10.94875 0.62875 11.8975 0.4375 12.875 C0.293125 13.57625 0.14875 14.2775 0 15 C2.64 14.67 5.28 14.34 8 14 C5.44918171 16.97595467 2.56565563 18.44002566 -1 20 C-1.99 20 -2.98 20 -4 20 C-4.433125 20.495 -4.86625 20.99 -5.3125 21.5 C-7 23 -7 23 -10.1875 23.1875 C-11.5796875 23.0946875 -11.5796875 23.0946875 -13 23 C-11.76448756 19.29346269 -10.03334922 18.35084565 -7 16 C-5.60300974 13.20601948 -5.39128865 10.46076285 -4.9375 7.375 C-4.76089844 6.18648437 -4.58429688 4.99796875 -4.40234375 3.7734375 C-4.26957031 2.85820313 -4.13679688 1.94296875 -4 1 C-3.01 1 -2.02 1 -1 1 C-0.67 0.67 -0.34 0.34 0 0 Z " fill="#BD3D7A" transform="translate(433,520)"/>
<path d="M0 0 C0.33 0.66 0.66 1.32 1 2 C0.2884375 3.0828125 0.2884375 3.0828125 -0.4375 4.1875 C-2.36452814 7.65615065 -2.22985328 10.09249429 -2 14 C1.02121511 14.97110486 3.00463263 15.13617383 6 14 C6.33 13.34 6.66 12.68 7 12 C5.68 11.67 4.36 11.34 3 11 C2.95758277 8.66705225 2.95907063 6.33297433 3 4 C4 3 4 3 7.0625 2.9375 C8.5165625 2.9684375 8.5165625 2.9684375 10 3 C9.99399945 5.27120764 9.94400204 7.54233286 9.875 9.8125 C9.85179687 11.07707031 9.82859375 12.34164063 9.8046875 13.64453125 C9 17 9 17 6.0703125 18.94921875 C3 20 3 20 1 20 C1 19.01 1 18.02 1 17 C-2.465 19.475 -2.465 19.475 -6 22 C-5.34 18.7 -4.68 15.4 -4 12 C-4.66 12 -5.32 12 -6 12 C-5.34 10.02 -4.68 8.04 -4 6 C-4.99 6 -5.98 6 -7 6 C-7.33 4.35 -7.66 2.7 -8 1 C-7.01 1.99 -6.02 2.98 -5 4 C-3.35 2.68 -1.7 1.36 0 0 Z " fill="#E6C4D1" transform="translate(578,381)"/>
<path d="M0 0 C-0.309375 0.53625 -0.61875 1.0725 -0.9375 1.625 C-2.15239728 4.06246442 -2.15239728 4.06246442 -2.5 7.1875 C-2.665 8.115625 -2.83 9.04375 -3 10 C-3.99 10.495 -3.99 10.495 -5 11 C-5.46523063 12.89533342 -5.46523063 12.89533342 -5.625 15.0625 C-5.74875 16.361875 -5.8725 17.66125 -6 19 C-5.01 19 -4.02 19 -3 19 C-3.66 20.98 -4.32 22.96 -5 25 C-4.34 25 -3.68 25 -3 25 C-2.63076923 30.41538462 -2.63076923 30.41538462 -4.5 33.375 C-4.995 33.91125 -5.49 34.4475 -6 35 C-6 32 -6 32 -5.3125 30.125 C-4.85715934 27.0286835 -6.3276494 25.5419729 -8 23 C-8 22.34 -8 21.68 -8 21 C-8.99 21 -9.98 21 -11 21 C-11 20.34 -11 19.68 -11 19 C-10.34 19 -9.68 19 -9 19 C-9 17.68 -9 16.36 -9 15 C-11.97 14.505 -11.97 14.505 -15 14 C-14.690625 13.401875 -14.38125 12.80375 -14.0625 12.1875 C-12.89790296 9.91043228 -12.89790296 9.91043228 -12 7 C-10.35 7 -8.7 7 -7 7 C-6.731875 6.401875 -6.46375 5.80375 -6.1875 5.1875 C-3.37142857 0 -3.37142857 0 0 0 Z " fill="#DF2D68" transform="translate(577,368)"/>
<path d="M0 0 C0 3.20395416 -0.74335022 5.09399739 -2 8 C-1.34 8 -0.68 8 0 8 C-0.33 10.97 -0.66 13.94 -1 17 C0.98 16.34 2.96 15.68 5 15 C2.86602751 19.4578797 0.32151805 23.6888478 -2.16601562 27.95507812 C-3.70328411 30.61759305 -5.02473729 33.07421186 -6 36 C-5.34 36.33 -4.68 36.66 -4 37 C-7.3 37.66 -10.6 38.32 -14 39 C-14 37.68 -14 36.36 -14 35 C-13.21625 34.814375 -12.4325 34.62875 -11.625 34.4375 C-10.75875 33.963125 -9.8925 33.48875 -9 33 C-8.690625 31.88625 -8.38125 30.7725 -8.0625 29.625 C-6.73366517 25.09132823 -4.96332213 24.32629777 -1 22 C-1 21.34 -1 20.68 -1 20 C-1.66 19.67 -2.32 19.34 -3 19 C-3.08071788 16.20775927 -3.14035408 13.41783434 -3.1875 10.625 C-3.22520508 9.43390625 -3.22520508 9.43390625 -3.26367188 8.21875 C-3.29004405 6.14413852 -3.15486462 4.06899135 -3 2 C-2.01 1.34 -1.02 0.68 0 0 Z " fill="#EADFE2" transform="translate(459,525)"/>
<path d="M0 0 C1.32 0 2.64 0 4 0 C4.28875 0.969375 4.5775 1.93875 4.875 2.9375 C5.64214682 6.10664203 5.64214682 6.10664203 8 7 C7.01 7 6.02 7 5 7 C5.33 7.99 5.66 8.98 6 10 C5.01 10 4.02 10 3 10 C2.9175 10.556875 2.835 11.11375 2.75 11.6875 C1.36159692 15.96840948 -1.32027316 18.54684877 -5 21 C-7.6875 21.125 -7.6875 21.125 -10 21 C-9.67 19.02 -9.34 17.04 -9 15 C-9.99 15.66 -10.98 16.32 -12 17 C-12.99 17 -13.98 17 -15 17 C-15.33 17.99 -15.66 18.98 -16 20 C-17.32 19.67 -18.64 19.34 -20 19 C-13.92560175 14.09846827 -13.92560175 14.09846827 -10.0625 13.6875 C-9.381875 13.790625 -8.70125 13.89375 -8 14 C-8 14.66 -8 15.32 -8 16 C-6.35 16.33 -4.7 16.66 -3 17 C-0.97038535 14.75701561 -0.00958944 13.60701146 0.0390625 10.52734375 C-0.09757813 9.67269531 -0.23421875 8.81804687 -0.375 7.9375 C-0.88030707 4.64309607 -1.07607775 3.22823324 0 0 Z " fill="#EFE7E9" transform="translate(562,365)"/>
<path d="M0 0 C2.6875 -0.3125 2.6875 -0.3125 5 0 C4.62875 0.763125 4.2575 1.52625 3.875 2.3125 C3.441875 3.6428125 3.441875 3.6428125 3 5 C3.99 6.485 3.99 6.485 5 8 C4.34 8 3.68 8 3 8 C2.7525 8.639375 2.505 9.27875 2.25 9.9375 C1 12 1 12 -1.125 12.75 C-2.053125 12.87375 -2.053125 12.87375 -3 13 C-3.33 12.34 -3.66 11.68 -4 11 C-4.99 11.495 -4.99 11.495 -6 12 C-8.125 11.5625 -8.125 11.5625 -10 11 C-10 10.34 -10 9.68 -10 9 C-11.32 9.99 -12.64 10.98 -14 12 C-14.66 11.67 -15.32 11.34 -16 11 C-13.59207207 8.13266476 -11.60631485 7.45144715 -8 6.625 C-3.85571932 5.58583718 -3.85571932 5.58583718 -1.1875 2.3125 C-0.795625 1.549375 -0.40375 0.78625 0 0 Z " fill="#465F9A" transform="translate(530,325)"/>
<path d="M0 0 C0 0.66 0 1.32 0 2 C-1.2065625 3.11375 -1.2065625 3.11375 -2.4375 4.25 C-6.33745155 8.43531386 -6.16212162 12.48786495 -6 18 C-4.68 18.33 -3.36 18.66 -2 19 C-3.65 19.33 -5.3 19.66 -7 20 C-7.28875 19.030625 -7.5775 18.06125 -7.875 17.0625 C-8.64214682 13.89335797 -8.64214682 13.89335797 -11 13 C-10.34 12.01 -9.68 11.02 -9 10 C-8.83300768 6.87478167 -8.83300768 6.87478167 -9 4 C-9.763125 4.474375 -10.52625 4.94875 -11.3125 5.4375 C-14 7 -14 7 -17 8 C-14 2 -14 2 -11.85546875 1.11328125 C-10.97503906 0.84902344 -10.09460938 0.58476562 -9.1875 0.3125 C-8.31480469 0.04050781 -7.44210937 -0.23148437 -6.54296875 -0.51171875 C-3.93126166 -1.01319861 -2.48283616 -0.86233704 0 0 Z " fill="#ECD2B1" transform="translate(636,448)"/>
<path d="M0 0 C0.99 0.33 1.98 0.66 3 1 C1.515 3.475 1.515 3.475 0 6 C1.6254308 5.85904936 3.25034051 5.71207913 4.875 5.5625 C5.77992188 5.48128906 6.68484375 5.40007813 7.6171875 5.31640625 C10.01110861 5.13010715 10.01110861 5.13010715 12 4 C12.99 4.33 13.98 4.66 15 5 C14.1875 6.9375 14.1875 6.9375 13 9 C12.01 9.33 11.02 9.66 10 10 C10 9.01 10 8.02 10 7 C9.30132812 7.433125 8.60265625 7.86625 7.8828125 8.3125 C6.51769531 9.1478125 6.51769531 9.1478125 5.125 10 C4.22007812 10.556875 3.31515625 11.11375 2.3828125 11.6875 C0 13 0 13 -2 13 C-2 10.69 -2 8.38 -2 6 C-2.66 5.67 -3.32 5.34 -4 5 C-2.68 3.35 -1.36 1.7 0 0 Z " fill="#E87B58" transform="translate(481,579)"/>
<path d="M0 0 C0 0.99 0 1.98 0 3 C0.66 3 1.32 3 2 3 C2.33 2.01 2.66 1.02 3 0 C3.99 0 4.98 0 6 0 C5.43628586 3.26954202 4.50037734 4.82575883 2 7 C2 6.01 2 5.02 2 4 C0.989375 4.165 -0.02125 4.33 -1.0625 4.5 C-4.76262933 4.96985769 -8.27607391 5.07599849 -12 5 C-11.67 3.35 -11.34 1.7 -11 0 C-6.98195309 -0.84098656 -3.98196457 -1.05404945 0 0 Z " fill="#EBE0D9" transform="translate(506,592)"/>
<path d="M0 0 C1.98 0 3.96 0 6 0 C5.67 4.62 5.34 9.24 5 14 C3.02 14 1.04 14 -1 14 C-1 13.01 -1 12.02 -1 11 C-0.01 11 0.98 11 2 11 C2.33 10.34 2.66 9.68 3 9 C1.68 8.67 0.36 8.34 -1 8 C-1.04241723 5.66705225 -1.04092937 3.33297433 -1 1 C-0.67 0.67 -0.34 0.34 0 0 Z " fill="#EABECB" transform="translate(582,384)"/>
<path d="M0 0 C0 1.32 0 2.64 0 4 C1.32 4 2.64 4 4 4 C4 4.66 4 5.32 4 6 C2.35 6.33 0.7 6.66 -1 7 C-1.33 8.98 -1.66 10.96 -2 13 C-2.33 13 -2.66 13 -3 13 C-3.66 10.03 -4.32 7.06 -5 4 C-6.65 5.32 -8.3 6.64 -10 8 C-12 6 -12 6 -12.125 3.375 C-12.08375 2.59125 -12.0425 1.8075 -12 1 C-11.34 0.67 -10.68 0.34 -10 0 C-10 1.32 -10 2.64 -10 4 C-9.34 4 -8.68 4 -8 4 C-7.731875 3.360625 -7.46375 2.72125 -7.1875 2.0625 C-5.22591378 -1.34446554 -3.54735467 -1.18245156 0 0 Z " fill="#EDE8E8" transform="translate(583,378)"/>
<path d="M0 0 C0.99 0.33 1.98 0.66 3 1 C2.67 2.98 2.34 4.96 2 7 C1.34 6.67 0.68 6.34 0 6 C0 5.34 0 4.68 0 4 C-4.94242241 8.10798746 -9.35782683 12.344736 -13.45703125 17.30078125 C-15 19 -15 19 -18 21 C-18.99 21 -19.98 21 -21 21 C-21 18.69 -21 16.38 -21 14 C-20.01 14.495 -20.01 14.495 -19 15 C-19 15.66 -19 16.32 -19 17 C-15.38317647 16.44175115 -14.02083171 15.25399273 -11.75 12.4375 C-8.07484592 8.02890953 -4.10379878 4.00786583 0 0 Z " fill="#EDE3D8" transform="translate(622,418)"/>
<path d="M0 0 C-0.0868748 1.95917659 -0.19504512 3.91741871 -0.3125 5.875 C-0.37050781 6.96554687 -0.42851563 8.05609375 -0.48828125 9.1796875 C-0.65714844 10.11039063 -0.82601562 11.04109375 -1 12 C-4 14 -4 14 -8 14 C-8.33 12.68 -8.66 11.36 -9 10 C-8.01 10 -7.02 10 -6 10 C-6.99 9.67 -7.98 9.34 -9 9 C-7.45665977 5.21180126 -4.44676575 0 0 0 Z " fill="#F7F3EF" transform="translate(528,589)"/>
<path d="M0 0 C-1.38339992 4.21002246 -3.30081702 6.7067203 -6.4375 9.8125 C-7.21996094 10.60269531 -8.00242187 11.39289062 -8.80859375 12.20703125 C-11 14 -11 14 -14 14 C-13.43454163 10.04179141 -12.19097652 7.3340947 -10 4 C-9.34 4.33 -8.68 4.66 -8 5 C-7.67 4.34 -7.34 3.68 -7 3 C-6.34 3 -5.68 3 -5 3 C-4.67 2.34 -4.34 1.68 -4 1 C-2 0 -2 0 0 0 Z " fill="#C34C81" transform="translate(467,547)"/>
<path d="M0 0 C3 0.125 3 0.125 4 1.125 C4.125 4.625 4.125 4.625 4 8.125 C3 9.125 3 9.125 -0.0625 9.1875 C-1.031875 9.166875 -2.00125 9.14625 -3 9.125 C-4.36623674 6.39252652 -4.128426 4.14301098 -4 1.125 C-3 0.125 -3 0.125 0 0 Z " fill="#EED0AA" transform="translate(631,434.875)"/>
<path d="M0 0 C0.66 0.33 1.32 0.66 2 1 C1.67 3.31 1.34 5.62 1 8 C0.01 8.33 -0.98 8.66 -2 9 C-2.6496875 9.7734375 -2.6496875 9.7734375 -3.3125 10.5625 C-5.78583126 12.66941181 -7.8637368 12.20908421 -11 12 C-9.74456576 8.23369729 -8.11311137 7.40558606 -5 5 C-3.31471312 3.35216394 -1.64302953 1.68997323 0 0 Z " fill="#E4C1CE" transform="translate(431,531)"/>
<path d="M0 0 C0.86625 0.3403125 0.86625 0.3403125 1.75 0.6875 C2.125 2.9375 2.125 2.9375 1.75 5.6875 C-1.0625 8.0625 -1.0625 8.0625 -4.25 9.6875 C-5.24 9.3575 -6.23 9.0275 -7.25 8.6875 C-6.76566469 3.23872777 -6.76566469 3.23872777 -4.4375 0.75 C-2.25 -0.3125 -2.25 -0.3125 0 0 Z " fill="#595883" transform="translate(384.25,504.3125)"/>
<path d="M0 0 C1.27066587 2.54133174 1 4.12791367 1 7 C-0.32 6.67 -1.64 6.34 -3 6 C-3.70125 7.010625 -4.4025 8.02125 -5.125 9.0625 C-6.48828125 10.73046875 -6.48828125 10.73046875 -8 12 C-11.3125 11.875 -11.3125 11.875 -14 11 C-13.25 9.0625 -13.25 9.0625 -12 7 C-10.0625 6.4375 -10.0625 6.4375 -8 6 C-6.97895449 5.02149805 -5.9793879 4.02019573 -5 3 C-3.68252676 2.30251417 -2.35085807 1.63040043 -1 1 C-0.67 0.67 -0.34 0.34 0 0 Z " fill="#ECCCBD" transform="translate(507,573)"/>
<path d="M0 0 C0.66 1.32 1.32 2.64 2 4 C-0.64 7.63 -3.28 11.26 -6 15 C-7 12 -7 12 -7.4375 9.9375 C-7.89366755 7.78505328 -7.89366755 7.78505328 -10 6 C-5.25 4 -5.25 4 -3 4 C-1.36323743 2.0399719 -1.36323743 2.0399719 0 0 Z " fill="#ADACBF" transform="translate(419,483)"/>
<path d="M0 0 C0.66 0.99 1.32 1.98 2 3 C1.4225 3.45890625 0.845 3.9178125 0.25 4.390625 C-0.86375 5.31101562 -0.86375 5.31101562 -2 6.25 C-2.7425 6.85328125 -3.485 7.4565625 -4.25 8.078125 C-6.44884733 10.05972212 -6.44884733 10.05972212 -6 14 C-6.8125 16.6875 -6.8125 16.6875 -8 19 C-8.99 19.33 -9.98 19.66 -11 20 C-11.49376745 15.59536994 -11.33507852 12.92365398 -8.59375 9.47265625 C-7.57981937 8.32046236 -6.54795464 7.18383721 -5.5 6.0625 C-4.97535156 5.47404297 -4.45070313 4.88558594 -3.91015625 4.27929688 C-2.62209584 2.83901114 -1.31307183 1.41752072 0 0 Z " fill="#B9346F" transform="translate(488,528)"/>
<path d="M0 0 C0.66 0.33 1.32 0.66 2 1 C2 1.66 2 2.32 2 3 C2.99 3 3.98 3 5 3 C4.34 4.98 3.68 6.96 3 9 C3.66 9 4.32 9 5 9 C5.36923077 14.41538462 5.36923077 14.41538462 3.5 17.375 C3.005 17.91125 2.51 18.4475 2 19 C2 16 2 16 2.6875 14.125 C3.14284066 11.0286835 1.6723506 9.5419729 0 7 C0 6.34 0 5.68 0 5 C-0.99 5 -1.98 5 -3 5 C-3 4.34 -3 3.68 -3 3 C-2.34 3 -1.68 3 -1 3 C-0.67 2.01 -0.34 1.02 0 0 Z " fill="#E54F88" transform="translate(569,384)"/>
<path d="M0 0 C0.99 0 1.98 0 3 0 C5 3 5 3 4.6875 5.125 C4 7 4 7 3 8 C1.00041636 8.04080783 -1.00045254 8.04254356 -3 8 C-3 3.78825048 -2.80255323 2.9063515 0 0 Z " fill="#655F8C" transform="translate(404,496)"/>
<path d="M0 0 C1.98 1.65 3.96 3.3 6 5 C5.01 5.495 5.01 5.495 4 6 C3.67 6.99 3.34 7.98 3 9 C-0.5625 10.1875 -0.5625 10.1875 -4 11 C-3.36984297 8.05926718 -2.37579962 5.66561175 -1 3 C-0.67 2.01 -0.34 1.02 0 0 Z " fill="#3F3773" transform="translate(389,487)"/>
<path d="M0 0 C-1.40164889 4.76560621 -4.15411474 7.95882443 -8 11 C-8.66 11 -9.32 11 -10 11 C-10.33 10.01 -10.66 9.02 -11 8 C-10.525625 7.5875 -10.05125 7.175 -9.5625 6.75 C-7.83733482 4.817815 -7.43415125 3.51807725 -7 1 C-4.50935112 0.31292445 -2.62113708 0 0 0 Z " fill="#362E6D" transform="translate(395,473)"/>
<path d="M0 0 C2.6875 -0.3125 2.6875 -0.3125 5 0 C3.5993784 3.501554 2.37735911 4.46483677 -1 6 C-1.45375 6.495 -1.9075 6.99 -2.375 7.5 C-4.6393766 9.59019379 -7.07651684 10.1554382 -10 11 C-10 10.34 -10 9.68 -10 9 C-11.32 9.99 -12.64 10.98 -14 12 C-14.66 11.67 -15.32 11.34 -16 11 C-13.59207207 8.13266476 -11.60631485 7.45144715 -8 6.625 C-3.85571932 5.58583718 -3.85571932 5.58583718 -1.1875 2.3125 C-0.795625 1.549375 -0.40375 0.78625 0 0 Z " fill="#DEE1E9" transform="translate(530,325)"/>
<path d="M0 0 C0.66 0.33 1.32 0.66 2 1 C1.04882866 2.1725131 0.08882991 3.33787015 -0.875 4.5 C-1.67550781 5.47453125 -1.67550781 5.47453125 -2.4921875 6.46875 C-2.98976563 6.9740625 -3.48734375 7.479375 -4 8 C-4.66 8 -5.32 8 -6 8 C-6.33 10.31 -6.66 12.62 -7 15 C-7.99 15.33 -8.98 15.66 -10 16 C-9.835 15.195625 -9.67 14.39125 -9.5 13.5625 C-8.96808161 11.2715557 -8.96808161 11.2715557 -9 10 C-9.66 9.67 -10.32 9.34 -11 9 C-9.68 7.68 -8.36 6.36 -7 5 C-6.34 5.33 -5.68 5.66 -5 6 C-5 5.34 -5 4.68 -5 4 C-3.37373596 2.61767557 -1.7074998 1.28062485 0 0 Z " fill="#BF2D75" transform="translate(467,517)"/>
<path d="M0 0 C0 4.09449281 -1.60436917 5.06330612 -4.375 8 C-8.97671932 12.38222428 -8.97671932 12.38222428 -11.1953125 18.04296875 C-11.17210937 18.75066406 -11.14890625 19.45835937 -11.125 20.1875 C-11.08375 21.445625 -11.0425 22.70375 -11 24 C-11.66 24 -12.32 24 -13 24 C-13.98120464 20.94736336 -13.98120464 19.05263664 -13 16 C-13.66 15.67 -14.32 15.34 -15 15 C-14.25556641 14.38125 -14.25556641 14.38125 -13.49609375 13.75 C-8.5188434 9.51886498 -4.17380962 5.0216147 0 0 Z " fill="#DCBDC9" transform="translate(489,525)"/>
<path d="M0 0 C-1 2 -2 4 -3 6 C-2.67 6.99 -2.34 7.98 -2 9 C-3.3125 11.1875 -3.3125 11.1875 -5 13 C-5.66 13 -6.32 13 -7 13 C-7.875 10.4375 -7.875 10.4375 -8 7 C-3.71057884 0 -3.71057884 0 0 0 Z " fill="#9C99B7" transform="translate(388,476)"/>
<path d="M0 0 C2 3 2 3 2 5 C3.32 5.66 4.64 6.32 6 7 C3.525 8.485 3.525 8.485 1 10 C1 9.34 1 8.68 1 8 C-1.97 7.505 -1.97 7.505 -5 7 C-1.125 1.125 -1.125 1.125 0 0 Z " fill="#9F9AB6" transform="translate(400,485)"/>
<path d="M0 0 C0.66 1.32 1.32 2.64 2 4 C1.02471263 5.33617352 0.04466681 6.6688751 -0.9375 8 C-1.75541016 9.11375 -1.75541016 9.11375 -2.58984375 10.25 C-3.05519531 10.8275 -3.52054687 11.405 -4 12 C-4.33 12 -4.66 12 -5 12 C-5.25 4.375 -5.25 4.375 -3 1 C-2.34 1 -1.68 1 -1 1 C-0.67 0.67 -0.34 0.34 0 0 Z " fill="#EFE7EB" transform="translate(433,520)"/>
<path d="M0 0 C0.99 0.33 1.98 0.66 3 1 C1.8125 4.4375 1.8125 4.4375 0 8 C-2.6875 8.9375 -2.6875 8.9375 -5 9 C-5.33 8.01 -5.66 7.02 -6 6 C-4.02 4.02 -2.04 2.04 0 0 Z " fill="#D298B0" transform="translate(447,527)"/>
<path d="M0 0 C1.32 0.33 2.64 0.66 4 1 C3.979375 1.721875 3.95875 2.44375 3.9375 3.1875 C3.99820559 5.91925138 4.39258535 8.34256091 5 11 C4.01 11 3.02 11 2 11 C0 9 0 9 -0.1953125 6.8359375 C-0.17210937 6.02382813 -0.14890625 5.21171875 -0.125 4.375 C-0.10695313 3.55773437 -0.08890625 2.74046875 -0.0703125 1.8984375 C-0.04710937 1.27195312 -0.02390625 0.64546875 0 0 Z " fill="#F0CBD7" transform="translate(582,356)"/>
<path d="M0 0 C-0.309375 0.53625 -0.61875 1.0725 -0.9375 1.625 C-2.17827439 4.3984957 -2.5909675 7.00042837 -3 10 C-4.11375 9.814375 -5.2275 9.62875 -6.375 9.4375 C-9.82568861 8.68319343 -9.82568861 8.68319343 -12 10 C-12 9.01 -12 8.02 -12 7 C-10.35 7 -8.7 7 -7 7 C-6.731875 6.401875 -6.46375 5.80375 -6.1875 5.1875 C-3.37142857 0 -3.37142857 0 0 0 Z " fill="#D85B85" transform="translate(577,368)"/>
<path d="M0 0 C1.32 0 2.64 0 4 0 C4 0.66 4 1.32 4 2 C4.66 2.33 5.32 2.66 6 3 C3.36 5.31 0.72 7.62 -2 10 C-3.39195915 5.82412255 -1.82323219 3.86525224 0 0 Z " fill="#E87B53" transform="translate(506,602)"/>
<path d="M0 0 C0.33 0.66 0.66 1.32 1 2 C2.65 2 4.3 2 6 2 C6 4 6 4 4.3125 6.125 C2 8 2 8 -0.75 8.25 C-1.4925 8.1675 -2.235 8.085 -3 8 C-2.37240135 5.07120629 -1.41377341 2.63904371 0 0 Z " fill="#E5BFAC" transform="translate(473,588)"/>
<path d="M0 0 C0.66 1.32 1.32 2.64 2 4 C1.01 5.485 1.01 5.485 0 7 C0 7.99 0 8.98 0 10 C-1.65 9.67 -3.3 9.34 -5 9 C-4.5206753 4.68607774 -3.2542015 2.83430453 0 0 Z " fill="#EBB49E" transform="translate(484,566)"/>
<path d="M0 0 C0.66 0.66 1.32 1.32 2 2 C0.56760415 3.79574993 -0.8711004 5.58646907 -2.3125 7.375 C-3.51326172 8.87160156 -3.51326172 8.87160156 -4.73828125 10.3984375 C-7 13 -7 13 -10 15 C-10 14.01 -10 13.02 -10 12 C-9.34 12 -8.68 12 -8 12 C-7.9175 11.443125 -7.835 10.88625 -7.75 10.3125 C-6.75290104 7.23811154 -5.20770546 5.33757048 -3 3 C-2.01 3 -1.02 3 0 3 C0 2.01 0 1.02 0 0 Z " fill="#E85591" transform="translate(578,431)"/>
<path d="M0 0 C0 3.20395416 -0.74335022 5.09399739 -2 8 C-1.34 8 -0.68 8 0 8 C-0.08378906 8.62648438 -0.16757812 9.25296875 -0.25390625 9.8984375 C-0.40666016 11.12433594 -0.40666016 11.12433594 -0.5625 12.375 C-0.66691406 13.18710937 -0.77132813 13.99921875 -0.87890625 14.8359375 C-1.18237328 17.04899186 -1.18237328 17.04899186 0 19 C-0.99 19 -1.98 19 -3 19 C-3.08071788 16.20775927 -3.14035408 13.41783434 -3.1875 10.625 C-3.21263672 9.8309375 -3.23777344 9.036875 -3.26367188 8.21875 C-3.29004405 6.14413852 -3.15486462 4.06899135 -3 2 C-2.01 1.34 -1.02 0.68 0 0 Z " fill="#DCB1C6" transform="translate(459,525)"/>
<path d="M0 0 C0.66 0.33 1.32 0.66 2 1 C2.125 3.875 2.125 3.875 2 7 C1.34 7.66 0.68 8.32 0 9 C-0.66 8.34 -1.32 7.68 -2 7 C-2.99 7 -3.98 7 -5 7 C-4.60196439 4.11424181 -4.20990931 3.17810487 -1.9375 1.25 C-1.298125 0.8375 -0.65875 0.425 0 0 Z " fill="#ED9831" transform="translate(626,451)"/>
<path d="M0 0 C1.2065625 0.0309375 1.2065625 0.0309375 2.4375 0.0625 C2.1075 2.3725 1.7775 4.6825 1.4375 7.0625 C-0.2125 7.0625 -1.8625 7.0625 -3.5625 7.0625 C-3.60504356 5.06295254 -3.60330783 3.06208364 -3.5625 1.0625 C-2.5625 0.0625 -2.5625 0.0625 0 0 Z " fill="#E1386E" transform="translate(584.5625,383.9375)"/>
<path d="M0 0 C0 1.98 0 3.96 0 6 C0.99 6.33 1.98 6.66 3 7 C1.35 7 -0.3 7 -2 7 C-1.67 5.02 -1.34 3.04 -1 1 C-1.99 1.66 -2.98 2.32 -4 3 C-4.99 3 -5.98 3 -7 3 C-7.33 3.99 -7.66 4.98 -8 6 C-9.32 5.67 -10.64 5.34 -12 5 C-4.88610478 -0.74031891 -4.88610478 -0.74031891 0 0 Z " fill="#EBB6C9" transform="translate(554,379)"/>
<path d="M0 0 C1.32 0 2.64 0 4 0 C4 2.31 4 4.62 4 7 C2.68 7.33 1.36 7.66 0 8 C-0.79953138 4.71303767 -1.09658936 3.28976808 0 0 Z " fill="#E2AFC4" transform="translate(562,365)"/>
<path d="M0 0 C0.33 0.99 0.66 1.98 1 3 C-2.63 6.96 -6.26 10.92 -10 15 C-10.33 14.01 -10.66 13.02 -11 12 C-10.54109375 11.55269531 -10.0821875 11.10539063 -9.609375 10.64453125 C-6.16447701 7.25029352 -2.92744915 3.86423288 0 0 Z " fill="#EC6737" transform="translate(540,576)"/>
<path d="M0 0 C0.99 0.33 1.98 0.66 3 1 C2.8125 2.875 2.8125 2.875 2 5 C-0.1875 6 -0.1875 6 -3 7 C-5.02318078 8.29788956 -7.02866014 9.62464661 -9 11 C-8.8125 9.1875 -8.8125 9.1875 -8 7 C-6.35666496 5.96210419 -4.68756133 4.96432076 -3 4 C-1.21655822 1.93045153 -1.21655822 1.93045153 0 0 Z " fill="#F2F1EE" transform="translate(504,578)"/>
<path d="M0 0 C0.66 0.33 1.32 0.66 2 1 C-5.62824675 7.18506494 -5.62824675 7.18506494 -10.6875 7.625 C-11.49574219 7.69976562 -12.30398438 7.77453125 -13.13671875 7.8515625 C-14.05904297 7.92503906 -14.05904297 7.92503906 -15 8 C-12.7135611 5.3691296 -10.82628167 4.40766549 -7.5 3.4375 C-4.4741534 2.54487525 -2.6873471 1.79156474 0 0 Z " fill="#D7DDE7" transform="translate(550,324)"/>
<path d="M0 0 C0.66 0.99 1.32 1.98 2 3 C3.65 2.67 5.3 2.34 7 2 C6.67 3.32 6.34 4.64 6 6 C5.01 6 4.02 6 3 6 C1.32900023 6.31088368 -0.33871537 6.64080332 -2 7 C-1.34 4.69 -0.68 2.38 0 0 Z " fill="#E9D6BA" transform="translate(617,434)"/>
<path d="M0 0 C0 1.98 0 3.96 0 6 C0.66 6.33 1.32 6.66 2 7 C1.01 7 0.02 7 -1 7 C-1 5.68 -1 4.36 -1 3 C-4.86648272 4.04097612 -8.49461443 5.03698408 -12 7 C-8.29688852 1.97434871 -6.33425539 0 0 0 Z " fill="#EBBB85" transform="translate(601,433)"/>
<path d="M0 0 C1.65 0.33 3.3 0.66 5 1 C4.75 2.875 4.75 2.875 4 5 C1.9375 6.25 1.9375 6.25 0 7 C-0.93423645 3.98968256 -1.04449911 3.13349732 0 0 Z " fill="#C6477D" transform="translate(445,540)"/>
<path d="M0 0 C0 3.66075632 -0.84236799 5.73211732 -3.3125 8.4375 C-3.869375 8.953125 -4.42625 9.46875 -5 10 C-5.886875 10.886875 -6.77375 11.77375 -7.6875 12.6875 C-8.450625 13.450625 -9.21375 14.21375 -10 15 C-10 10.79452429 -7.63261876 8.83289639 -5 5.8125 C-4.52304687 5.25369141 -4.04609375 4.69488281 -3.5546875 4.11914062 C-2.37633794 2.74047164 -1.18901048 1.36948528 0 0 Z " fill="#EB90B4" transform="translate(536,391)"/>
<path d="M0 0 C-0.33 1.32 -0.66 2.64 -1 4 C-1.33 3.34 -1.66 2.68 -2 2 C-2.928125 2.639375 -3.85625 3.27875 -4.8125 3.9375 C-8 6 -8 6 -11 7 C-8 1 -8 1 -6.1875 0.375 C-4 0 -4 0 0 0 Z " fill="#F0E0CD" transform="translate(630,449)"/>
<path d="M0 0 C0.33 0 0.66 0 1 0 C1.25 2.25 1.25 2.25 1 5 C-1 7.3125 -1 7.3125 -3 9 C-5.31 8.34 -7.62 7.68 -10 7 C-10 6.67 -10 6.34 -10 6 C-8.3603125 5.62875 -8.3603125 5.62875 -6.6875 5.25 C-2.89397463 3.9640592 -1.98571906 3.30953177 0 0 Z " fill="#DCDDE4" transform="translate(411,498)"/>
<path d="M0 0 C0.33 1.32 0.66 2.64 1 4 C-0.09445838 4.86657116 -1.20097781 5.71792724 -2.3125 6.5625 C-2.92738281 7.03816406 -3.54226563 7.51382812 -4.17578125 8.00390625 C-4.77777344 8.33261719 -5.37976563 8.66132813 -6 9 C-6.99 8.67 -7.98 8.34 -9 8 C-7.88625 7.13375 -7.88625 7.13375 -6.75 6.25 C-4.33912357 4.27746474 -2.15957299 2.23955718 0 0 Z " fill="#ECA146" transform="translate(612,431)"/>
<path d="M0 0 C0.5775 0.7425 1.155 1.485 1.75 2.25 C3.87476202 5.00699679 3.87476202 5.00699679 6.3125 7 C7.1478125 7.99 7.1478125 7.99 8 9 C7.75 11.75 7.75 11.75 7 14 C6.67 14 6.34 14 6 14 C6 12.02 6 10.04 6 8 C4.68 8.33 3.36 8.66 2 9 C1.67 7.02 1.34 5.04 1 3 C0.01 2.67 -0.98 2.34 -2 2 C-1.34 1.34 -0.68 0.68 0 0 Z " fill="#E9C3D2" transform="translate(580,405)"/>
<path d="M0 0 C3.00617269 3.00617269 2.59585316 5.82381598 3 10 C4.32 10 5.64 10 7 10 C6.67 10.99 6.34 11.98 6 13 C6 12.34 6 11.68 6 11 C2.88214887 11.64644661 2.88214887 11.64644661 2 14 C1.34 14 0.68 14 0 14 C0 12.68 0 11.36 0 10 C0.66 10 1.32 10 2 10 C1.34 6.7 0.68 3.4 0 0 Z " fill="#E9805E" transform="translate(506,581)"/>
<path d="M0 0 C1.32 0 2.64 0 4 0 C3.67 1.98 3.34 3.96 3 6 C1.35 5.67 -0.3 5.34 -2 5 C-1.125 1.125 -1.125 1.125 0 0 Z " fill="#F1F2F0" transform="translate(502,585)"/>
<path d="M0 0 C0.99 0.33 1.98 0.66 3 1 C0.03 4.3 -2.94 7.6 -6 11 C-6.33 10.01 -6.66 9.02 -7 8 C-6.34 7.01 -5.68 6.02 -5 5 C-4.34 5 -3.68 5 -3 5 C-2.690625 4.360625 -2.38125 3.72125 -2.0625 3.0625 C-1 1 -1 1 0 0 Z " fill="#CD4D8B" transform="translate(499,525)"/>
<path d="M0 0 C3.125 -0.1875 3.125 -0.1875 6 0 C6 0.66 6 1.32 6 2 C7.65 1.34 9.3 0.68 11 0 C9.37660195 1.70884005 7.70680947 3.37446717 6 5 C5.34 5 4.68 5 4 5 C4 4.01 4 3.02 4 2 C2.02 2.33 0.04 2.66 -2 3 C-1.34 2.01 -0.68 1.02 0 0 Z " fill="#B8C2D6" transform="translate(503,337)"/>
<path d="M0 0 C1 2 1 2 0.0625 5.125 C-0.288125 6.07375 -0.63875 7.0225 -1 8 C-1.66 8 -2.32 8 -3 8 C-3 9.65 -3 11.3 -3 13 C-4.125 11.3125 -4.125 11.3125 -5 9 C-4.0209951 5.4399822 -2.3177115 2.84446411 0 0 Z " fill="#BB2A6E" transform="translate(463,542)"/>
<path d="M0 0 C0 4.26861765 -1.65525557 6.48288335 -4 10 C-6.625 11.1875 -6.625 11.1875 -9 12 C-7.55575365 8.76138697 -5.74227753 6.38030837 -3.375 3.75 C-2.74335937 3.04359375 -2.11171875 2.3371875 -1.4609375 1.609375 C-0.97882812 1.07828125 -0.49671875 0.5471875 0 0 Z " fill="#F0C293" transform="translate(586,442)"/>
<path d="M0 0 C0.33 0.66 0.66 1.32 1 2 C0.22265625 3.7265625 0.22265625 3.7265625 -0.9375 5.625 C-1.618125 6.73875 -2.29875 7.8525 -3 9 C-4.32 8.67 -5.64 8.34 -7 8 C-5.50902342 4.2047869 -3.24299151 2.38957269 0 0 Z " fill="#EFA243" transform="translate(623,420)"/>
<path d="M0 0 C-0.33 1.98 -0.66 3.96 -1 6 C0.98 5.67 2.96 5.34 5 5 C5 5.66 5 6.32 5 7 C-1.75 7.125 -1.75 7.125 -4 6 C-4 5.01 -4 4.02 -4 3 C-4.66 2.67 -5.32 2.34 -6 2 C-2.25 0 -2.25 0 0 0 Z " fill="#E63C79" transform="translate(553,380)"/>
<path d="M0 0 C1.32 0.66 2.64 1.32 4 2 C3.01 2.495 3.01 2.495 2 3 C0.86649466 5.01669827 0.86649466 5.01669827 0 7 C-0.66 7 -1.32 7 -2 7 C-2.6875 5.1875 -2.6875 5.1875 -3 3 C-1.5625 1.25 -1.5625 1.25 0 0 Z " fill="#B6BFD4" transform="translate(531,330)"/>
<path d="M0 0 C0.66 0.33 1.32 0.66 2 1 C2.40729228 3.32156597 2.74438677 5.6568787 3 8 C-3.75 9 -3.75 9 -6 9 C-6 7.35 -6 5.7 -6 4 C-5.67 4.99 -5.34 5.98 -5 7 C-3.35 7.33 -1.7 7.66 0 8 C0 5.36 0 2.72 0 0 Z " fill="#EBD8CD" transform="translate(505,583)"/>
<path d="M0 0 C0.66 0.99 1.32 1.98 2 3 C-2.455 6.96 -2.455 6.96 -7 11 C-7.66 10.67 -8.32 10.34 -9 10 C-6.03 6.7 -3.06 3.4 0 0 Z " fill="#C12973" transform="translate(488,528)"/>
<path d="M0 0 C0.66 0.33 1.32 0.66 2 1 C-1.44615385 5.8 -1.44615385 5.8 -4.25 6.8125 C-5.11625 6.9053125 -5.11625 6.9053125 -6 7 C-6 6.01 -6 5.02 -6 4 C-3 1.8125 -3 1.8125 0 0 Z " fill="#D59DB9" transform="translate(457,522)"/>
<path d="M0 0 C0.33 0.99 0.66 1.98 1 3 C-0.43359375 5.04296875 -0.43359375 5.04296875 -2.4375 7.1875 C-3.09621094 7.90292969 -3.75492188 8.61835938 -4.43359375 9.35546875 C-4.95050781 9.89816406 -5.46742188 10.44085938 -6 11 C-6.66 10.34 -7.32 9.68 -8 9 C-7.360625 8.7525 -6.72125 8.505 -6.0625 8.25 C-3.82450832 7.21173571 -3.82450832 7.21173571 -3.4375 5.0625 C-3.293125 4.381875 -3.14875 3.70125 -3 3 C-1.4375 1.25 -1.4375 1.25 0 0 Z " fill="#CF4489" transform="translate(521,499)"/>
<path d="M0 0 C0.99 0.33 1.98 0.66 3 1 C0.36 3.97 -2.28 6.94 -5 10 C-5.66 9.34 -6.32 8.68 -7 8 C-6.34 7.01 -5.68 6.02 -5 5 C-4.01 5 -3.02 5 -2 5 C-1.855625 4.360625 -1.71125 3.72125 -1.5625 3.0625 C-1 1 -1 1 0 0 Z " fill="#D84D8E" transform="translate(531,487)"/>
<path d="M0 0 C2.97 0.495 2.97 0.495 6 1 C6 1.66 6 2.32 6 3 C7.32 3.33 8.64 3.66 10 4 C8.02 4.66 6.04 5.32 4 6 C4 5.01 4 4.02 4 3 C2.68 3.33 1.36 3.66 0 4 C0 2.68 0 1.36 0 0 Z " fill="#EBE7E7" transform="translate(575,395)"/>
<path d="M0 0 C1.98 0.66 3.96 1.32 6 2 C5.67 3.32 5.34 4.64 5 6 C5.66 6.33 6.32 6.66 7 7 C4.625 6.6875 4.625 6.6875 2 6 C0 3 0 3 0 0 Z " fill="#FBF7F2" transform="translate(510,608)"/>
<path d="M0 0 C0.99 0.33 1.98 0.66 3 1 C3 1.66 3 2.32 3 3 C3.66 3.33 4.32 3.66 5 4 C4.195625 4.28875 3.39125 4.5775 2.5625 4.875 C-0.1326468 5.73262568 -0.1326468 5.73262568 -1 8 C-1.66 8 -2.32 8 -3 8 C-2.45276317 4.62537285 -1.9451 2.91765 0 0 Z " fill="#F4F5F3" transform="translate(478,573)"/>
<path d="M0 0 C-0.165 0.5775 -0.33 1.155 -0.5 1.75 C-1.14462031 4.26664369 -1.14462031 4.26664369 -1 8 C-1.99 7.67 -2.98 7.34 -4 7 C-5.1875 4.4375 -5.1875 4.4375 -6 2 C-2.25 0 -2.25 0 0 0 Z " fill="#2E2465" transform="translate(396,484)"/>
<path d="M0 0 C0.66 0 1.32 0 2 0 C1.67 2.31 1.34 4.62 1 7 C-0.32 6.67 -1.64 6.34 -3 6 C-2.42655063 3.13275314 -2.1385485 2.1385485 0 0 Z " fill="#EB9B3C" transform="translate(632,436)"/>
<path d="M0 0 C0 1.98 0 3.96 0 6 C-1.32 6.33 -2.64 6.66 -4 7 C-4.33 5.35 -4.66 3.7 -5 2 C-2 0 -2 0 0 0 Z " fill="#F3CBB9" transform="translate(519,607)"/>
<path d="M0 0 C0.99 0 1.98 0 3 0 C2.43628586 3.26954202 1.50037734 4.82575883 -1 7 C-1 6.01 -1 5.02 -1 4 C-2.32 4.33 -3.64 4.66 -5 5 C-5 4.34 -5 3.68 -5 3 C-3.68 3 -2.36 3 -1 3 C-0.67 2.01 -0.34 1.02 0 0 Z " fill="#ECD2C4" transform="translate(509,592)"/>
<path d="M0 0 C0.66 0.33 1.32 0.66 2 1 C-0.97 4.3 -3.94 7.6 -7 11 C-7 7.22089522 -6.00296038 6.53893899 -3.5 3.8125 C-2.8503125 3.09707031 -2.200625 2.38164063 -1.53125 1.64453125 C-1.0259375 1.10183594 -0.520625 0.55914063 0 0 Z " fill="#C02672" transform="translate(491,520)"/>
<path d="M0 0 C0.33 1.32 0.66 2.64 1 4 C-1.4375 6.75 -1.4375 6.75 -4 9 C-4.99 8.67 -5.98 8.34 -7 8 C-4.69 5.36 -2.38 2.72 0 0 Z " fill="#D472A5" transform="translate(450,493)"/>
<path d="M0 0 C0.99 0.33 1.98 0.66 3 1 C2.67 2.98 2.34 4.96 2 7 C1.34 6.67 0.68 6.34 0 6 C0 5.34 0 4.68 0 4 C-1.98 4.99 -1.98 4.99 -4 6 C-2.84826645 3.53199953 -1.95216435 1.95216435 0 0 Z " fill="#F4EEE5" transform="translate(622,418)"/>
<path d="M0 0 C0.33 0.66 0.66 1.32 1 2 C2.32 2 3.64 2 5 2 C5 2.66 5 3.32 5 4 C3.35 4.33 1.7 4.66 0 5 C-0.33 6.98 -0.66 8.96 -1 11 C-1.33 11 -1.66 11 -2 11 C-3.35384615 4.6 -3.35384615 4.6 -1.5625 1.5625 C-1.046875 1.046875 -0.53125 0.53125 0 0 Z " fill="#EBCED8" transform="translate(582,380)"/>
<path d="M0 0 C1.32 0 2.64 0 4 0 C3.67 1.65 3.34 3.3 3 5 C1.68 5 0.36 5 -1 5 C-0.67 3.35 -0.34 1.7 0 0 Z " fill="#DA6F4D" transform="translate(495,592)"/>
<path d="M0 0 C0.66 0 1.32 0 2 0 C0.61811547 3.21043882 -0.92421903 5.04936365 -3.625 7.25 C-4.57246094 8.03117188 -4.57246094 8.03117188 -5.5390625 8.828125 C-6.02117188 9.21484375 -6.50328125 9.6015625 -7 10 C-6.67 8.68 -6.34 7.36 -6 6 C-5.34 6 -4.68 6 -4 6 C-4 5.34 -4 4.68 -4 4 C-3.34 4 -2.68 4 -2 4 C-2 3.34 -2 2.68 -2 2 C-1.34 2 -0.68 2 0 2 C0 1.34 0 0.68 0 0 Z " fill="#EC6138" transform="translate(535,577)"/>
<path d="M0 0 C0 3 0 3 -2 6 C-2.66 6 -3.32 6 -4 6 C-4.33 7.32 -4.66 8.64 -5 10 C-5.66 10 -6.32 10 -7 10 C-6.42424336 6.64749299 -5.40693737 5.06181371 -2.9375 2.75 C-2.38964844 2.22921875 -1.84179688 1.7084375 -1.27734375 1.171875 C-0.64505859 0.59179688 -0.64505859 0.59179688 0 0 Z " fill="#EB5830" transform="translate(514,573)"/>
<path d="M0 0 C0.66 1.32 1.32 2.64 2 4 C-0.12780579 6.34058637 -2.11562221 7.70700306 -5 9 C-4.42647107 5.12867972 -2.51295648 2.91827204 0 0 Z " fill="#CC86AA" transform="translate(435,514)"/>
<path d="M0 0 C1.32 0 2.64 0 4 0 C3.67 0.99 3.34 1.98 3 3 C3 2.34 3 1.68 3 1 C2.030625 1.78375 1.06125 2.5675 0.0625 3.375 C-0.48277344 3.81585938 -1.02804687 4.25671875 -1.58984375 4.7109375 C-3.13266437 5.9666391 -3.13266437 5.9666391 -4 8 C-4.99 7.67 -5.98 7.34 -7 7 C-7 6.34 -7 5.68 -7 5 C-5.35666496 3.96210419 -3.68756133 2.96432076 -2 2 C-1.34 1.34 -0.68 0.68 0 0 Z " fill="#E2D2D7" transform="translate(574,367)"/>
<path d="M0 0 C-0.3125 1.875 -0.3125 1.875 -1 4 C-4 6 -4 6 -8 6 C-6.44620094 2.89240188 -3.60020424 0 0 0 Z " fill="#F1DFD4" transform="translate(510,607)"/>
<path d="M0 0 C0.598125 0.20625 1.19625 0.4125 1.8125 0.625 C1 2.5625 1 2.5625 -0.1875 4.625 C-1.1775 4.955 -2.1675 5.285 -3.1875 5.625 C-3.1875 4.635 -3.1875 3.645 -3.1875 2.625 C-3.8475 2.295 -4.5075 1.965 -5.1875 1.625 C-2.1875 -0.375 -2.1875 -0.375 0 0 Z " fill="#EA9F84" transform="translate(494.1875,583.375)"/>
<path d="M0 0 C-0.165 0.495 -0.33 0.99 -0.5 1.5 C-1.20688818 5.03444089 -1.06005155 8.39690701 -1 12 C-1.66 12 -2.32 12 -3 12 C-3.98120464 8.94736336 -3.98120464 7.05263664 -3 4 C-3.66 3.67 -4.32 3.34 -5 3 C-2.25 0 -2.25 0 0 0 Z " fill="#E2CBD3" transform="translate(479,537)"/>
<path d="M0 0 C0.33 0 0.66 0 1 0 C0.50769231 6.4 0.50769231 6.4 -2.0625 9.4375 C-2.701875 9.953125 -3.34125 10.46875 -4 11 C-3.39301257 6.87248551 -1.96189209 3.6678852 0 0 Z " fill="#F0BD82" transform="translate(634,467)"/>
<path d="M0 0 C0.66 0 1.32 0 2 0 C2 2.31 2 4.62 2 7 C0.68 6.67 -0.64 6.34 -2 6 C-1.125 1.125 -1.125 1.125 0 0 Z " fill="#E7C8D2" transform="translate(581,371)"/>
<path d="M0 0 C2.125 0.375 2.125 0.375 4 1 C2.35 2.65 0.7 4.3 -1 6 C-1.625 4.125 -1.625 4.125 -2 2 C-1.34 1.34 -0.68 0.68 0 0 Z " fill="#EEE7E1" transform="translate(479,577)"/>
<path d="M0 0 C1.98 0 3.96 0 6 0 C6 0.99 6 1.98 6 3 C4.02 3.33 2.04 3.66 0 4 C0 2.68 0 1.36 0 0 Z " fill="#DEB7C2" transform="translate(445,560)"/>
<path d="M0 0 C0.99 0.33 1.98 0.66 3 1 C1.02 3.31 -0.96 5.62 -3 8 C-3.33 6.68 -3.66 5.36 -4 4 C-2.0625 1.75 -2.0625 1.75 0 0 Z " fill="#DE4F8E" transform="translate(552,462)"/>
<path d="M0 0 C0.66 0 1.32 0 2 0 C2 0.99 2 1.98 2 3 C3.32 2.67 4.64 2.34 6 2 C5.6875 3.875 5.6875 3.875 5 6 C4.01 6.66 3.02 7.32 2 8 C1.33333333 5.33333333 0.66666667 2.66666667 0 0 Z " fill="#E26C96" transform="translate(577,398)"/>
<path d="M0 0 C0.99 0.66 1.98 1.32 3 2 C2.34 2 1.68 2 1 2 C0.67 2.99 0.34 3.98 0 5 C-2.0625 5.6875 -2.0625 5.6875 -4 6 C-3.6875 4.125 -3.6875 4.125 -3 2 C-2.01 1.34 -1.02 0.68 0 0 Z " fill="#6E6895" transform="translate(392,491)"/>
<path d="M0 0 C0 3.99904969 -1.72586967 5.80200422 -4 9 C-4.66 8.01 -5.32 7.02 -6 6 C-4.02 4.02 -2.04 2.04 0 0 Z " fill="#D1D7E0" transform="translate(399,470)"/>
<path d="M0 0 C1.32 0 2.64 0 4 0 C4 0.66 4 1.32 4 2 C4.66 2.33 5.32 2.66 6 3 C4.35 3.33 2.7 3.66 1 4 C0.67 2.68 0.34 1.36 0 0 Z " fill="#E86C43" transform="translate(506,602)"/>
<path d="M0 0 C0.66 0 1.32 0 2 0 C1.6875 2.375 1.6875 2.375 1 5 C0.01 5.66 -0.98 6.32 -2 7 C-2 3 -2 3 0 0 Z " fill="#EA6741" transform="translate(488,562)"/>
<path d="M0 0 C1.98 0.495 1.98 0.495 4 1 C3.34 2.32 2.68 3.64 2 5 C1.01 5 0.02 5 -1 5 C-0.67 3.35 -0.34 1.7 0 0 Z " fill="#CE6994" transform="translate(454,556)"/>
<path d="M0 0 C2.25 0.25 2.25 0.25 4 1 C2.72403685 3.55192629 1.62843884 3.99500868 -1 5 C-1.99 4.67 -2.98 4.34 -4 4 C-2.25 1.9375 -2.25 1.9375 0 0 Z " fill="#C6397C" transform="translate(461,538)"/>
<path d="M0 0 C0.66 0 1.32 0 2 0 C2 0.99 2 1.98 2 3 C-1 5.1875 -1 5.1875 -4 7 C-4.66 6.67 -5.32 6.34 -6 6 C-4 4 -2 2 0 0 Z " fill="#C8C7D3" transform="translate(420,496)"/>
<path d="M0 0 C1.65 0.33 3.3 0.66 5 1 C3.37660195 2.70884005 1.70680947 4.37446717 0 6 C-0.66 6 -1.32 6 -2 6 C-2.33 5.01 -2.66 4.02 -3 3 C-2.34 3 -1.68 3 -1 3 C-0.67 2.01 -0.34 1.02 0 0 Z " fill="#7F789D" transform="translate(424,492)"/>
<path d="M0 0 C0.33 1.32 0.66 2.64 1 4 C-0.98 4 -2.96 4 -5 4 C-5 3.01 -5 2.02 -5 1 C-3.35 0.67 -1.7 0.34 0 0 Z " fill="#DD8AA7" transform="translate(586,394)"/>
<path d="M0 0 C-1.15173355 2.46800047 -2.04783565 4.04783565 -4 6 C-4.99 6.33 -5.98 6.66 -7 7 C-3.86206897 0 -3.86206897 0 0 0 Z " fill="#DA4B81" transform="translate(577,368)"/>
<path d="M0 0 C0.66 0 1.32 0 2 0 C1.67 1.98 1.34 3.96 1 6 C-0.65 5.67 -2.3 5.34 -4 5 C-2.71937515 3.2925002 -1.38232443 1.62626404 0 0 Z " fill="#EED5C5" transform="translate(526,589)"/>
<path d="M0 0 C-2.8125 2.0625 -2.8125 2.0625 -6 4 C-6.99 3.67 -7.98 3.34 -9 3 C-8.34 3 -7.68 3 -7 3 C-7 2.01 -7 1.02 -7 0 C-2.25 -1.125 -2.25 -1.125 0 0 Z " fill="#D18AAD" transform="translate(441,535)"/>
<path d="M0 0 C0.33 0 0.66 0 1 0 C1 1.98 1 3.96 1 6 C0.01 6.33 -0.98 6.66 -2 7 C-2.125 4.625 -2.125 4.625 -2 2 C-1.34 1.34 -0.68 0.68 0 0 Z " fill="#322566" transform="translate(415,495)"/>
<path d="M0 0 C1.32 0 2.64 0 4 0 C3.34 2.31 2.68 4.62 2 7 C1.67 7 1.34 7 1 7 C0.67 4.69 0.34 2.38 0 0 Z " fill="#F0F0F0" transform="translate(382,493)"/>
<path d="M0 0 C0.33 0.99 0.66 1.98 1 3 C-0.4375 5.1875 -0.4375 5.1875 -2 7 C-2.99 6.67 -3.98 6.34 -5 6 C-3.35 4.02 -1.7 2.04 0 0 Z " fill="#F0B886" transform="translate(569,462)"/>
<path d="M0 0 C0.66 0.33 1.32 0.66 2 1 C2.125 3.875 2.125 3.875 2 7 C1.34 7.66 0.68 8.32 0 9 C-0.93423645 5.98968256 -1.04449911 5.13349732 0 2 C-0.66 1.67 -1.32 1.34 -2 1 C-1.34 0.67 -0.68 0.34 0 0 Z " fill="#EEA549" transform="translate(626,451)"/>
<path d="M0 0 C2.475 0.495 2.475 0.495 5 1 C4.67 2.32 4.34 3.64 4 5 C2.68 4.67 1.36 4.34 0 4 C0 2.68 0 1.36 0 0 Z " fill="#EF962B" transform="translate(613,430)"/>
<path d="M0 0 C0.33 0 0.66 0 1 0 C1 1.98 1 3.96 1 6 C0.34 6 -0.32 6 -1 6 C-1.042721 4.33388095 -1.04063832 2.66617115 -1 1 C-0.67 0.67 -0.34 0.34 0 0 Z " fill="#EAB77C" transform="translate(610,418)"/>
<path d="M0 0 C0.66 0.33 1.32 0.66 2 1 C1.67 1.99 1.34 2.98 1 4 C0.01 4 -0.98 4 -2 4 C-1.34 2.68 -0.68 1.36 0 0 Z " fill="#6B81AA" transform="translate(541,299)"/>
<path d="" fill="#EE9933" transform="translate(0,0)"/>
<path d="" fill="#EDEDED" transform="translate(0,0)"/>
</svg>
