<svg xmlns="http://www.w3.org/2000/svg" width="1024" height="1024">
  <path fill="#EF7630" d="m622 418 3 1-1 6h-2l-.375 2.875C621 431 621 431 619 433v4l5-1c-.57584432 2.38564077-1.22227595 4.66682784-2 7l.5 2c.5 2 .5 2-.5 5l2.046875-.69140625L626.75 448.4375l2.671875-.87890625c2.65646816-.5755681 4.04843606-.45107746 6.578125.44140625v2l-2.4375 2.25c-3.89995155 4.18531386-3.72462162 8.23786495-3.5625 13.75l5 1c-.45645919 4.74717553-1.0866686 7.30231015-4 11l-1.25 3.75c-1.47414253 4.08569452-3.59949148 6.70418322-6.53515625 9.86328125-2.78084024 2.99663737-5.43403824 6.09187623-8.08984375 9.19921875l-1.57324219 1.83349609c-3.1326512 3.65997757-6.20691798 7.36004667-9.23925781 11.10400391-3.55517904 4.38151795-7.28019537 8.56710681-11.078125 12.73828125-3.02127537 3.39629381-5.86013433 6.92764855-8.71875 10.4609375C581.57074948 540.52056624 578.54279913 544.0121164 575.5 547.5c-4.49520733 5.15564063-8.88623664 10.37511424-13.19140625 15.69140625-3.22351838 3.92167465-6.53927624 7.76143571-9.85864258 11.60205078-3.14889223 3.65349982-6.19647732 7.36898705-9.19995117 11.14404297-3.71174062 4.56262701-7.62908864 8.43178393-12.25 12.0625l-1.9140625 1.53515625C525.72090047 602.10547177 524.353144 603 520 603l-2-3-1 3 2 2c.265625 1.875.265625 1.875.25 4l.015625 2.125C519 613 519 613 517 615c-3.82065222-.29389632-5.45194972-1.24394561-8-4l-1.50390625.83984375C502.90681832 614.28687676 499.18440279 615.56796643 494 616c-1.87560585-4.72211356-2.21440223-8.86222651-2.0625-13.875.0902763-5.47676201-.03586054-10.71516325-.9375-16.125l-2.046875 1.27734375L486.25 588.9375l-2.671875 1.65234375C481 592 481 592 478.796875 592.50390625 476.59308204 592.90142033 476.59308204 592.90142033 475 596c-2.625.1875-2.625.1875-5 0 .85984004-3.60970584 1.99098313-7.0771116 3.203125-10.58203125.81270088-2.36491347.81270088-2.36491347 1.34375-4.6171875 1.66665634-6.27248364 5.05759844-10.19580182 9.26953125-15.0546875 2.00843252-2.52581049 3.23252374-4.67912131 4.49609375-7.62109375 2.7407145-5.98405139 7.14025847-10.21478802 11.640625-14.90625 3.45418183-3.60399145 6.57101052-7.44085515 9.6953125-11.33203125 3.26250948-4.00497427 6.64824884-7.89958226 10.02880859-11.80493164 3.51289506-4.07906971 6.84010929-8.25727333 10.01806641-12.60522461L531 506h2l.6953125-1.6328125c1.69370578-3.07301109 3.89293251-5.60417673 6.1796875-8.2421875l1.47094727-1.71704102c1.02859453-1.19983486 2.05899153-2.39812655 3.09106445-3.5949707 1.51595694-1.75843428 3.02672889-3.5211666 4.53564453-5.28564453 3.51058647-4.10389238 7.02930218-8.20078668 10.54785156-12.29785156 1.51436852-1.76367935 3.02834001-3.52769803 4.54199219-5.29199219l1.49658203-1.74438477c2.95914351-3.45298153 5.90452737-6.91714521 8.83813477-10.3918457 1.37769421-1.63174891 2.75743589-3.26174086 4.13793945-4.89111328 1.49062978-1.75993532 2.97845035-3.52226275 4.4609375-5.2890625C588.57741994 439.07018305 593.34111194 433.76712001 602 432l1 3c3.61682353-.55824885 4.97916829-1.74600727 7.25-4.5625 3.67515408-4.40859047 7.64620122-8.42963417 11.75-12.4375ZM521 596v2l-2 1h3l-1-3Z"/>
  <path fill="#D32470" d="M562 365h4l2 6 2.0625-1.375c3.24185186-1.79336486 6.3578441-2.71253869 9.9375-3.625l.375 1.9375L581 370l2 1v11h4c.89039751 3.70324421 1.06049225 6.89431966.75 10.6875l-.203125 2.88671875C587 398 587 398 584 400c-1.59804864 2.31717053-2.00997148 3.61111238-1.9375 6.4375 1.24073754 3.39134927 3.27989175 5.17746696 5.9375 7.5625-.94274422 3.0210667-1.95945626 6.01130168-3 9l-.66796875 2.109375c-2.80618362 7.57812022-8.40755282 13.14852447-13.71191406 19.07324219-2.53582051 2.84458225-5.01660424 5.73538116-7.49511719 8.62988281l-1.48242188 1.7253418c-4.55081362 5.31394327-8.98644853 10.72015522-13.42016601 16.13183593-4.27530327 5.20829022-8.63119333 10.33965898-13.03271484 15.44140625-3.70974212 4.30718423-7.31933252 8.68829025-10.90454102 13.09985352-6.00129565 7.32465828-12.14926493 14.52910889-18.41015625 21.6328125-1.99527443 2.2945656-3.96140533 4.61185728-5.92260742 6.93554688-1.4357399 1.70097408-2.8756547 3.3983516-4.31567383 5.09570312-1.55906678 1.8400646-3.09611932 3.69041609-4.6171875 5.5625C487.26400652 542.97506763 483.35891742 546.43757512 478 549h-2c-.98120464-3.05263664-.98120464-4.94736336 0-8-3.88125791 2.0713449-6.19102508 4.17196416-8.8125 7.6875-10.89792388 13.91267666-10.89792388 13.91267666-20.28125 15.15625L445 564v-4l2.375-.5625L450 558l.9375-3.375c1.32883483-4.53367177 3.09917787-5.29870223 7.0625-7.625v-2l-2-1 .03515625-1.72265625C456.09223194 537.39329516 455.81956772 532.81496035 455 528c-2.97017694.62810173-2.97017694.62810173-6 2-.68753301 1.65816784-1.35561283 3.32459336-2 5-2.45884972.79912616-4.43090798 1-7 1-2.0485311.97424834-4.03014174 2.04987069-6.02734375 3.125C432 540 432 540 429 540l-1.3125 1.5C426 543 426 543 422.8125 543.1875L420 543c1.23551244-3.70653731 2.96665078-4.64915435 6-7 1.34672639-2.69345277 1.36709461-5.19360444 1.6875-8.1875.80514346-5.47978236 1.84756693-8.27692094 5.76171875-12.09765625 1.80193417-1.992567 2.62231352-3.87386124 3.67578125-6.33984375 2.85445705-6.06802321 7.24151672-10.37427322 11.828125-15.15625 3.46045808-3.6105399 6.58152652-7.45608702 9.71484375-11.3515625 2.66242871-3.27340482 5.39339133-6.48083121 8.14453125-9.6796875l1.52856445-1.77832031c2.07193708-2.40823724 4.14625474-4.81441865 6.22045899-7.22070313 5.02009154-5.82683569 10.03221305-11.65082304 14.87597656-17.62597656 3.56301704-4.38772984 7.22762321-8.67427285 10.9375-12.9375 8.34884751-9.59514223 16.54922851-19.29880423 24.625-29.125 1.76920653-2.1478915 3.53880072-4.29546283 5.30859375-6.44287109 1.09903239-1.3366696 2.19553427-2.67542529 3.2890625-4.01660157C535.0579569 392.25016514 536.52782029 390.46809725 538 388.6875l2.5-3.05078125c3.32183353-3.5034963 6.44757421-6.45824694 11.375-6.88671875L554 379v2l5 1c2.02961465-2.24298439 2.99041056-3.39298854 3.0390625-6.47265625L561.625 372.9375c-.50530707-3.29440393-.70107775-4.70926676.375-7.9375Zm16 8-2 3h-2l-2 6h4l1-3 3-2-2-4Zm0 11c-2.66116712 2.66116712-2.9951775 3.90354991-3.1875 7.75L575 395c3.11771927 1.60339848 4.39011689 2.18974141 7.8125 1.125L585 395v-2l-1.875-.5625c-3.18102866-2.15187233-3.31951947-4.81283763-4.125-8.4375h-1Z"/>
  <path fill="#333678" d="m550 324 3 1-1.4140625 3.48046875c-1.59325973 4.24651347-2.33086783 8.35879378-2.9609375 12.83203125-.98971046 6.25005215-2.4903347 11.53198637-5.37890625 17.21484375C542.01132507 360.97752736 541.06421611 363.42420989 540.125 366c-5.0909151 12.86983339-14.63599014 23.34680426-23.84375 33.4375-2.32153821 2.60775525-4.52655355 5.28291144-6.71875 8-3.07586588 3.80337503-6.25003166 7.46332652-9.5625 11.0625-4.04002083 4.39429958-7.84632449 8.92113347-11.59765625 13.5625-2.69182914 3.29147238-5.44307454 6.52585167-8.21484375 9.75l-1.52807617 1.77783203c-2.07213939 2.4083659-4.14659318 4.81473311-6.22094727 7.22119141-10.94407583 12.54601239-10.94407583 12.54601239-21.23144531 25.62207031C447.10032225 482.00631329 442.66201027 486.02829683 437 490l-3.1875 2.25C431 494 431 494 428.1875 495.375c-3.64097589 1.85618379-6.88886945 4.07952864-10.234375 6.41796875C416 503 416 503 414 503l-2 4c-4.08378077 0-7.12315913-.80712589-11-2-.75-1.6875-.75-1.6875-1-4 1.75-2.75 1.75-2.75 4-5h3c1.6875 2 1.6875 2 3 4 1.81602517-4.53832753 1.81602517-4.53832753 1-9-3.95820859.56545837-6.6659053 1.80902348-10 4v-2h-8l-1 3c-2.0625.6875-2.0625.6875-4 1l1 3h5v4h-2v2l-2.1875.6875c-2.994051 1.20214547-2.994051 1.20214547-5.375 3.875-2.32613655 2.32613655-3.25840906 3.08426767-6.4375 3.4375-.75-2.125-.75-2.125-1-5 2.89156627-5.56894244 2.89156627-5.56894244 6.25-6.875L385 502l-2-2c-.40047444-2.32275177-.7397104-4.65739357-1-7l4-1 1-6-1.875 1.5C383 489 383 489 381 489c-.8125-2.6875-.8125-2.6875-1-6l2.3125-2.25c2.88314986-2.95019985 3.0349306-3.53041377 3.5625-7.375 1.72601486-10.511586 9.35817108-17.99873422 16.42578125-25.46484375 3.11343477-3.35674226 5.92155784-6.88247114 8.7421875-10.484375 2.04895115-2.53971789 4.19604955-4.95216575 6.39453125-7.36328125 6.68506784-7.34091787 12.88903714-15.06189025 18.859375-22.9921875C438.37559822 404.54342419 440.68638111 402.31361889 443 400c1.91609978-2.13200813 3.77150734-4.31351527 5.625-6.5l1.58007812-1.85351562C453.64643743 387.6059041 457.07333251 383.55304087 460.5 379.5c1.83257852-2.16730662 3.66583813-4.33403315 5.5-6.5l1.46875-1.73486328C470.95403722 367.15472148 474.46730909 363.06971597 478 359l1.43847656-1.67089844C485.35876012 350.48415727 491.35700832 344.89096972 499 340l2.08203125-1.671875C503.74491276 336.48417446 505.84175888 336.78466538 509 337v2l1.3984375-1.20703125c3.86244643-3.13728356 7.05818247-5.12902034 11.9140625-6.35546875 3.97323396-.92569153 3.97323396-.92569153 6.5-4.125L530 325c2.6875-.3125 2.6875-.3125 5 0l-2 5c3.30458071 0 5.41006284-.73703927 8.5-1.875l2.90625-1.0546875C547.16637983 326.03018324 547.16637983 326.03018324 550 324ZM393 477l1 2Zm-4 4 1 4 1-4h-2Z"/>
  <path fill="#F6F3EF" d="M507 573c1.39304559 2.78609117 1.40140586 5.75118176.4375 8.75-.62458412 3.2121469.00914191 6.05281993.5625 9.25h-2v4h2l1-3h3c-.61380303 3.11039513-1.65009118 5.20829308-3.4375 7.8125-2.38814261 3.67884396-3.58587563 6.92586637-4.5625 11.1875 4.84832047-4.02977286 9.17905915-8.20109698 13.265625-13 1.79041362-2.06462111 3.63837142-4.04417814 5.546875-6l1.70703125-1.75C526 589 526 589 528 589c-.0868748 1.95917659-.19504512 3.91741871-.3125 5.875l-.17578125 3.3046875L527 601c-3 2-3 2-7 2l-2-3-1 3 2 2c.265625 1.875.265625 1.875.25 4l.015625 2.125C519 613 519 613 517 615c-3.82065222-.29389632-5.45194972-1.24394561-8-4l-1.50390625.83984375C502.90681832 614.28687676 499.18440279 615.56796643 494 616c-1.90543644-4.77479956-2.21876566-8.99096905-2.0625-14.0625.16771736-5.41198163.16771736-5.41198163-.5859375-10.7578125L491 589c2.4375-2.8125 2.4375-2.8125 5-5h-3c.75-1.9375.75-1.9375 2-4 1.9375-.5625 1.9375-.5625 4-1 1.02104551-.97850195 2.0206121-1.97980427 3-3 1.31747324-.69748583 2.64914193-1.36959957 4-2l1-1Zm14 23v2l-2 1h3l-1-3Z"/>
  <path fill="#EAE6E7" d="M562 365h4l2 6 2.0625-1.375c3.24185186-1.79336486 6.3578441-2.71253869 9.9375-3.625l.375 1.9375L581 370l2 1v11h4c1.26959657 5.41300863 1.41812131 10.59234466 0 16-2.84027531 2.11509863-4.46723228 3-8 3v-3l-7 5 2-10h-2l2-6h-3c-.80967438-2.91482778-1.21845993-4.46113217-.0625-7.3125L572 378l1 4h2l.875-1.9375C577 378 577 378 579 377l-1-2-2 2-2-1c.54723683-3.37462715 1.0549-5.08235 3-8l-2.9375 2.375-1.65234375 1.3359375C570.86733563 372.9666391 570.86733563 372.9666391 570 375h-5l-.25 1.6875c-1.38840308 4.28090948-4.07027316 6.85934877-7.75 9.3125-2.6875.125-2.6875.125-5 0l1-6-3 2h-3l-1 3-4-1c6.07439825-4.90153173 6.07439825-4.90153173 9.9375-5.3125L554 379v2l5 1c2.02961465-2.24298439 2.99041056-3.39298854 3.0390625-6.47265625L561.625 372.9375c-.50530707-3.29440393-.70107775-4.70926676.375-7.9375Zm16 19c-2.66116712 2.66116712-2.9951775 3.90354991-3.1875 7.75L575 395c3.11771927 1.60339848 4.39011689 2.18974141 7.8125 1.125L585 395v-2l-1.875-.5625c-3.18102866-2.15187233-3.31951947-4.81283763-4.125-8.4375h-1Z"/>
  <path fill="#EEAA56" d="m622 418 3 1-1 6h-2l-.375 2.875C621 431 621 431 619 433v4l5-1c-.57584432 2.38564077-1.22227595 4.66682784-2 7l.5 2c.5 2 .5 2-.5 5l2.046875-.69140625L626.75 448.4375l2.671875-.87890625c2.65646816-.5755681 4.04843606-.45107746 6.578125.44140625v2l-2.4375 2.25c-3.89995155 4.18531386-3.72462162 8.23786495-3.5625 13.75l4 1-5 1-.875-2.9375c-.76714682-3.16914203-.76714682-3.16914203-3.125-4.0625l2-3c.16699232-3.12521833.16699232-3.12521833 0-6l-2.25 1.375c-2.21930578 1.31140796-4.42967822 2.50780803-6.75 3.625.53725895-3.37705625 1.11064623-6.696686 2-10h-2v-3h-2v-2h-2v-3l-2-1-1-1-2.125 1.5c-3.24619719 1.6936681-5.26840156 1.75162315-8.875 1.5v-4c-3.86648272 1.04097612-7.49461443 2.03698408-11 4 3.32364676-5.34673609 7.19945661-6.47549821 13-8l1 3c3.61682353-.55824885 4.97916829-1.74600727 7.25-4.5625 3.67515408-4.40859047 7.64620122-8.42963417 11.75-12.4375Z"/>
  <path fill="#EAE3E1" d="M507 573c1.39304559 2.78609117 1.40140586 5.75118176.4375 8.75-.62458412 3.2121469.00914191 6.05281993.5625 9.25h-2v4h2l1-3h3c-.56371414 3.26954202-1.49962266 4.82575883-4 7v-3l-3.0625.5c-3.70012933.46985769-7.21357391.57599849-10.9375.5-.05416188-1.60379341-.09286638-3.20811406-.125-4.8125l-.0703125-2.70703125C494 587 494 587 496 584h-3c.75-1.9375.75-1.9375 2-4 1.9375-.5625 1.9375-.5625 4-1 1.02104551-.97850195 2.0206121-1.97980427 3-3 1.31747324-.69748583 2.64914193-1.36959957 4-2l1-1Z"/>
  <path fill="#DBDCE2" d="m388 476-.9375 1.75c-.98833364 2.09294184-1.5793613 3.99535275-2.0625 6.25l4-2c1.60700789 4.82102367.17818553 7.5629554-2 12l-1.1875 2.4375L385 498l3-1 1 3h5v4h-2v2l-2.1875.6875c-2.994051 1.20214547-2.994051 1.20214547-5.375 3.875-2.32613655 2.32613655-3.25840906 3.08426767-6.4375 3.4375-.75-2.125-.75-2.125-1-5 2.89156627-5.56894244 2.89156627-5.56894244 6.25-6.875L385 502l-2-2c-.40047444-2.32275177-.7397104-4.65739357-1-7l4-1 1-6-1.875 1.5C383 489 383 489 381 489c-.875-2.5625-.875-2.5625-1-6 4.28942116-7 4.28942116-7 8-7Z"/>
  <path fill="#F4E6DD" d="M528 589c-.0868748 1.95917659-.19504512 3.91741871-.3125 5.875l-.17578125 3.3046875L527 601c-3 2-3 2-7 2l-2-3-1 3 2 2c.265625 1.875.265625 1.875.25 4l.015625 2.125C519 613 519 613 517 615c-2.95662966-.22743305-4.55033688-.61235938-6.8125-2.5625L509 611l-3 2h-4c1.19458388-2.38916776 2.30591738-3.00245155 4.5-4.5 4.39690591-3.21494196 7.81174427-6.99848826 11.38671875-11.0859375C525.25242718 589 525.25242718 589 528 589Zm-7 7v2l-2 1h3l-1-3Z"/>
  <path fill="#706795" d="m419 483 2 4-1.49609375 2.01171875L417.5625 491.6875l-1.93359375 2.63671875C414.01028351 496.98310742 413.3916038 498.93887169 413 502c3.41124018-1.41154766 4.8456223-3.06221223 7-6h2v3c-5.25714286 4-5.25714286 4-8 4l-2 4c-4.08378077 0-7.12315913-.80712589-11-2-.75-1.6875-.75-1.6875-1-4 1.75-2.75 1.75-2.75 4-5h3c1.6875 2 1.6875 2 3 4 1.28485606-3.28704716 1.28485606-3.28704716 2-7-1.22338275-2.44146006-1.22338275-2.44146006-3-4 4.75-2 4.75-2 7-2 1.63676257-1.9600281 1.63676257-1.9600281 3-4Z"/>
  <path fill="#F1F1EE" d="m484 566 2 4-2 3v3c-1.3125 2.04296875-1.3125 2.04296875-3 4.1875l-1.6875 2.16796875L478 584h2c-.48421053 7.26315789-.48421053 7.26315789-2.75 10.5-2.65400921 1.76933948-4.12193116 1.8475632-7.25 1.5.8587258-3.60502814 1.98970794-7.06831831 3.1953125-10.5703125.51804892-1.56420597.99562977-3.14269978 1.421875-4.734375C476.36031333 574.47601171 479.47392059 570.55087984 484 566Z"/>
  <path fill="#BD3D7A" d="M433 520c1.69787432 2.59674896 2.02157276 3.79721609 1.6875 6.9375L434 530l-.5625 2.875L433 535l8-1c-2.55081829 2.97595467-5.43434437 4.44002566-9 6h-3l-1.3125 1.5C426 543 426 543 422.8125 543.1875L420 543c1.23551244-3.70653731 2.96665078-4.64915435 6-7 1.39699026-2.79398052 1.60871135-5.53923715 2.0625-8.625l.53515625-3.6015625L429 521h3l1-1Z"/>
  <path fill="#E6C4D1" d="m578 381 1 2-1.4375 2.1875c-1.92702814 3.46865065-1.79235328 5.90499429-1.5625 9.8125 3.02121511.97110486 5.00463263 1.13617383 8 0l1-2-4-1c-.04241723-2.33294775-.04092937-4.66702567 0-7 1-1 1-1 4.0625-1.0625L588 384c-.00600055 2.27120764-.05599796 4.54233286-.125 6.8125l-.0703125 3.83203125C587 398 587 398 584.0703125 399.94921875 581 401 581 401 579 401v-3l-7 5 2-10h-2l2-6h-3l-1-5 3 3 5-4Z"/>
  <path fill="#DF2D68" d="m577 368-.9375 1.625c-1.21489728 2.43746442-1.21489728 2.43746442-1.5625 5.5625L574 378l-2 1c-.46523063 1.89533342-.46523063 1.89533342-.625 4.0625L571 387h3l-2 6h2c.36923077 5.41538462.36923077 5.41538462-1.5 8.375L571 403c0-3 0-3 .6875-4.875.45534066-3.0963165-1.0151494-4.5830271-2.6875-7.125v-2h-3v-2h2v-4l-6-1 .9375-1.8125c1.16459704-2.27706772 1.16459704-2.27706772 2.0625-5.1875h5l.8125-1.8125C573.62857143 368 573.62857143 368 577 368Z"/>
  <path fill="#EADFE2" d="M459 525c0 3.20395416-.74335022 5.09399739-2 8h2l-1 9 6-2c-2.13397249 4.4578797-4.67848195 8.6888478-7.16601562 12.95507812C455.29671589 555.61759305 453.97526271 558.07421186 453 561l2 1-10 2v-4l2.375-.5625L450 558l.9375-3.375c1.32883483-4.53367177 3.09917787-5.29870223 7.0625-7.625v-2l-2-1c-.08071788-2.79224073-.14035408-5.58216566-.1875-8.375l-.07617188-2.40625c-.02637217-2.07461148.10880726-4.14975865.26367188-6.21875l3-2Z"/>
  <path fill="#EFE7E9" d="M562 365h4l.875 2.9375c.76714682 3.16914203.76714682 3.16914203 3.125 4.0625h-3l1 3h-3l-.25 1.6875c-1.38840308 4.28090948-4.07027316 6.85934877-7.75 9.3125-2.6875.125-2.6875.125-5 0l1-6-3 2h-3l-1 3-4-1c6.07439825-4.90153173 6.07439825-4.90153173 9.9375-5.3125L554 379v2l5 1c2.02961465-2.24298439 2.99041056-3.39298854 3.0390625-6.47265625L561.625 372.9375c-.50530707-3.29440393-.70107775-4.70926676.375-7.9375Z"/>
  <path fill="#465F9A" d="M530 325c2.6875-.3125 2.6875-.3125 5 0l-1.125 2.3125L533 330l2 3h-2l-.75 1.9375C531 337 531 337 528.875 337.75L527 338l-1-2-2 1c-2.125-.4375-2.125-.4375-4-1v-2l-4 3-2-1c2.40792793-2.86733524 4.39368515-3.54855285 8-4.375 4.14428068-1.03916282 4.14428068-1.03916282 6.8125-4.3125L530 325Z"/>
  <path fill="#ECD2B1" d="M636 448v2l-2.4375 2.25c-3.89995155 4.18531386-3.72462162 8.23786495-3.5625 13.75l4 1-5 1-.875-2.9375c-.76714682-3.16914203-.76714682-3.16914203-3.125-4.0625l2-3c.16699232-3.12521833.16699232-3.12521833 0-6l-2.3125 1.4375C622 455 622 455 619 456c3-6 3-6 5.14453125-6.88671875L626.8125 448.3125l2.64453125-.82421875C632.06873834 446.98680139 633.51716384 447.13766296 636 448Z"/>
  <path fill="#E87B58" d="m481 579 3 1-3 5c1.6254308-.14095064 3.25034051-.28792087 4.875-.4375l2.7421875-.24609375C491.01110861 584.13010715 491.01110861 584.13010715 493 583l3 1c-.8125 1.9375-.8125 1.9375-2 4l-3 1v-3l-2.1171875 1.3125L486.125 589l-2.7421875 1.6875C481 592 481 592 479 592v-7l-2-1 4-5Z"/>
  <path fill="#EBE0D9" d="M506 592v3h2l1-3h3c-.56371414 3.26954202-1.49962266 4.82575883-4 7v-3l-3.0625.5c-3.70012933.46985769-7.21357391.57599849-10.9375.5l1-5c4.01804691-.84098656 7.01803543-1.05404945 11 0Z"/>
  <path fill="#EABECB" d="M582 384h6l-1 14h-6v-3h3l1-2-4-1c-.04241723-2.33294775-.04092937-4.66702567 0-7l1-1Z"/>
  <path fill="#EDE8E8" d="M583 378v4h4v2l-5 1-1 6h-1l-2-9-5 4c-2-2-2-2-2.125-4.625L571 379l2-1v4h2l.8125-1.9375c1.96158622-3.40696554 3.64014533-3.24495156 7.1875-2.0625Z"/>
  <path fill="#EDE3D8" d="m622 418 3 1-1 6-2-1v-2c-4.94242241 4.10798746-9.35782683 8.344736-13.45703125 13.30078125C607 437 607 437 604 439h-3v-7l2 1v2c3.61682353-.55824885 4.97916829-1.74600727 7.25-4.5625 3.67515408-4.40859047 7.64620122-8.42963417 11.75-12.4375Z"/>
  <path fill="#F7F3EF" d="M528 589c-.0868748 1.95917659-.19504512 3.91741871-.3125 5.875l-.17578125 3.3046875L527 601c-3 2-3 2-7 2l-1-4h3l-3-1c1.54334023-3.78819874 4.55323425-9 9-9Z"/>
  <path fill="#C34C81" d="M467 547c-1.38339992 4.21002246-3.30081702 6.7067203-6.4375 9.8125l-2.37109375 2.39453125C456 561 456 561 453 561c.56545837-3.95820859 1.80902348-6.6659053 4-10l2 1 1-2h2l1-2c2-1 2-1 4-1Z"/>
  <path fill="#EED0AA" d="M631 434.875c3 .125 3 .125 4 1.125.125 3.5.125 3.5 0 7-1 1-1 1-4.0625 1.0625L628 444c-1.36623674-2.73247348-1.128426-4.98198902-1-8 1-1 1-1 4-1.125Z"/>
  <path fill="#E4C1CE" d="m431 531 2 1-1 7-3 1-1.3125 1.5625c-2.47333126 2.10691181-4.5512368 1.64658421-7.6875 1.4375 1.25543424-3.76630271 2.88688863-4.59441394 6-7 1.68528688-1.64783606 3.35697047-3.31002677 5-5Z"/>
  <path fill="#595883" d="M384.25 504.3125 386 505c.375 2.25.375 2.25 0 5-2.8125 2.375-2.8125 2.375-6 4l-3-1c.48433531-5.44877223.48433531-5.44877223 2.8125-7.9375C382 504 382 504 384.25 504.3125Z"/>
  <path fill="#ECCCBD" d="M507 573c1.27066587 2.54133174 1 4.12791367 1 7l-4-1-2.125 3.0625c-1.36328125 1.66796875-1.36328125 1.66796875-2.875 2.9375-3.3125-.125-3.3125-.125-6-1 .75-1.9375.75-1.9375 2-4 1.9375-.5625 1.9375-.5625 4-1 1.02104551-.97850195 2.0206121-1.97980427 3-3 1.31747324-.69748583 2.64914193-1.36959957 4-2l1-1Z"/>
  <path fill="#ADACBF" d="m419 483 2 4-8 11c-1-3-1-3-1.4375-5.0625-.45616755-2.15244672-.45616755-2.15244672-2.5625-3.9375 4.75-2 4.75-2 7-2 1.63676257-1.9600281 1.63676257-1.9600281 3-4Z"/>
  <path fill="#B9346F" d="m488 528 2 3-1.75 1.390625L486 534.25l-2.25 1.828125c-2.19884733 1.98159712-2.19884733 1.98159712-1.75 5.921875-.8125 2.6875-.8125 2.6875-2 5l-3 1c-.49376745-4.40463006-.33507852-7.07634602 2.40625-10.52734375 1.01393063-1.15219389 2.04579536-2.28881904 3.09375-3.41015625l1.58984375-1.78320312C485.37790416 530.83901114 486.68692817 529.41752072 488 528Z"/>
  <path fill="#E54F88" d="m569 384 2 1v2h3l-2 6h2c.36923077 5.41538462.36923077 5.41538462-1.5 8.375L571 403c0-3 0-3 .6875-4.875.45534066-3.0963165-1.0151494-4.5830271-2.6875-7.125v-2h-3v-2h2l1-3Z"/>
  <path fill="#655F8C" d="M404 496h3c2 3 2 3 1.6875 5.125C408 503 408 503 407 504c-1.99958364.04080783-4.00045254.04254356-6 0 0-4.21174952.19744677-5.0936485 3-8Z"/>
  <path fill="#3F3773" d="m389 487 6 5-2 1-1 3c-3.5625 1.1875-3.5625 1.1875-7 2 .63015703-2.94073282 1.62420038-5.33438825 3-8l1-3Z"/>
  <path fill="#362E6D" d="M395 473c-1.40164889 4.76560621-4.15411474 7.95882443-8 11h-2l-1-3 1.4375-1.25c1.72516518-1.932185 2.12834875-3.23192275 2.5625-5.75 2.49064888-.68707555 4.37886292-1 7-1Z"/>
  <path fill="#DEE1E9" d="M530 325c2.6875-.3125 2.6875-.3125 5 0-1.4006216 3.501554-2.62264089 4.46483677-6 6l-1.375 1.5c-2.2643766 2.09019379-4.70151684 2.6554382-7.625 3.5v-2l-4 3-2-1c2.40792793-2.86733524 4.39368515-3.54855285 8-4.375 4.14428068-1.03916282 4.14428068-1.03916282 6.8125-4.3125L530 325Z"/>
  <path fill="#BF2D75" d="m467 517 2 1c-.95117134 1.1725131-1.91117009 2.33787015-2.875 3.5l-1.6171875 1.96875L463 525h-2l-1 7-3 1 .5-2.4375c.53191839-2.2909443.53191839-2.2909443.5-3.5625l-2-1 4-4 2 1v-2c1.62626404-1.38232443 3.2925002-2.71937515 5-4Z"/>
  <path fill="#DCBDC9" d="M489 525c0 4.09449281-1.60436917 5.06330612-4.375 8-4.60171932 4.38222428-4.60171932 4.38222428-6.8203125 10.04296875L477.875 545.1875 478 549h-2c-.98120464-3.05263664-.98120464-4.94736336 0-8l-2-1 1.50390625-1.25C480.4811566 534.51886498 484.82619038 530.0216147 489 525Z"/>
  <path fill="#9C99B7" d="m388 476-3 6 1 3c-1.3125 2.1875-1.3125 2.1875-3 4h-2c-.875-2.5625-.875-2.5625-1-6 4.28942116-7 4.28942116-7 8-7Z"/>
  <path fill="#9F9AB6" d="M400 485c2 3 2 3 2 5l4 2-5 3v-2l-6-1c3.875-5.875 3.875-5.875 5-7Z"/>
  <path fill="#EFE7EB" d="m433 520 2 4c-.97528737 1.33617352-1.95533319 2.6688751-2.9375 4l-1.65234375 2.25L429 532h-1c-.25-7.625-.25-7.625 2-11h2l1-1Z"/>
  <path fill="#D298B0" d="m447 527 3 1c-1.1875 3.4375-1.1875 3.4375-3 7-2.6875.9375-2.6875.9375-5 1l-1-3 6-6Z"/>
  <path fill="#F0CBD7" d="m582 356 4 1-.0625 2.1875c.06070559 2.73175138.45508535 5.15506091 1.0625 7.8125h-3c-2-2-2-2-2.1953125-4.1640625L581.875 360.375l.0546875-2.4765625L582 356Z"/>
  <path fill="#D85B85" d="m577 368-.9375 1.625c-1.24077439 2.7734957-1.6534675 5.37542837-2.0625 8.375l-3.375-.5625c-3.45068861-.75430657-3.45068861-.75430657-5.625.5625v-3h5l.8125-1.8125C573.62857143 368 573.62857143 368 577 368Z"/>
  <path fill="#E87B53" d="M506 602h4v2l2 1-8 7c-1.39195915-4.17587745.17676781-6.13474776 2-10Z"/>
  <path fill="#E5BFAC" d="m473 588 1 2h5c0 2 0 2-1.6875 4.125C475 596 475 596 472.25 596.25L470 596c.62759865-2.92879371 1.58622659-5.36095629 3-8Z"/>
  <path fill="#EBB49E" d="m484 566 2 4-2 3v3l-5-1c.4793247-4.31392226 1.7457985-6.16569547 5-9Z"/>
  <path fill="#E85591" d="m578 431 2 2c-1.43239585 1.79574993-2.8711004 3.58646907-4.3125 5.375l-2.42578125 3.0234375C571 444 571 444 568 446v-3h2l.25-1.6875c.99709896-3.07438846 2.54229454-4.97492952 4.75-7.3125h3v-3Z"/>
  <path fill="#DCB1C6" d="M459 525c0 3.20395416-.74335022 5.09399739-2 8h2l-.25390625 1.8984375L458.4375 537.375l-.31640625 2.4609375C457.81762672 542.04899186 457.81762672 542.04899186 459 544h-3c-.08071788-2.79224073-.14035408-5.58216566-.1875-8.375l-.07617188-2.40625c-.02637217-2.07461148.10880726-4.14975865.26367188-6.21875l3-2Z"/>
  <path fill="#ED9831" d="m626 451 2 1c.125 2.875.125 2.875 0 6l-2 2-2-2h-3c.39803561-2.88575819.79009069-3.82189513 3.0625-5.75L626 451Z"/>
  <path fill="#E1386E" d="M584.5625 383.9375 587 384l-1 7h-5c-.04254356-1.99954746-.04080783-4.00041636 0-6 1-1 1-1 3.5625-1.0625Z"/>
  <path fill="#EBB6C9" d="M554 379v6l3 1h-5l1-6-3 2h-3l-1 3-4-1c7.11389522-5.74031891 7.11389522-5.74031891 12-5Z"/>
  <path fill="#E2AFC4" d="M562 365h4v7l-4 1c-.79953138-3.28696233-1.09658936-4.71023192 0-8Z"/>
  <path fill="#EC6737" d="m540 576 1 3-11 12-1-3 1.390625-1.35546875C533.83552299 583.25029352 537.07255085 579.86423288 540 576Z"/>
  <path fill="#F2F1EE" d="m504 578 3 1c-.1875 1.875-.1875 1.875-1 4-2.1875 1-2.1875 1-5 2-2.02318078 1.29788956-4.02866014 2.62464661-6 4 .1875-1.8125.1875-1.8125 1-4 1.64333504-1.03789581 3.31243867-2.03567924 5-3 1.78344178-2.06954847 1.78344178-2.06954847 3-4Z"/>
  <path fill="#D7DDE7" d="m550 324 2 1c-7.62824675 6.18506494-7.62824675 6.18506494-12.6875 6.625l-2.44921875.2265625L535 332c2.2864389-2.6308704 4.17371833-3.59233451 7.5-4.5625 3.0258466-.89262475 4.8126529-1.64593526 7.5-3.4375Z"/>
  <path fill="#E9D6BA" d="m617 434 2 3 5-1-1 4h-3c-1.67099977.31088368-3.33871537.64080332-5 1l2-7Z"/>
  <path fill="#EBBB85" d="M601 433v6l2 1h-3v-4c-3.86648272 1.04097612-7.49461443 2.03698408-11 4 3.70311148-5.02565129 5.66574461-7 12-7Z"/>
  <path fill="#C6477D" d="m445 540 5 1c-.25 1.875-.25 1.875-1 4-2.0625 1.25-2.0625 1.25-4 2-.93423645-3.01031744-1.04449911-3.86650268 0-7Z"/>
  <path fill="#EB90B4" d="M536 391c0 3.66075632-.84236799 5.73211732-3.3125 8.4375L531 401l-2.6875 2.6875L526 406c0-4.20547571 2.36738124-6.16710361 5-9.1875l1.4453125-1.69335938C533.62366206 393.74047164 534.81098952 392.36948528 536 391Z"/>
  <path fill="#F0E0CD" d="m630 449-1 4-1-2-2.8125 1.9375C622 455 622 455 619 456c3-6 3-6 4.8125-6.625C626 449 626 449 630 449Z"/>
  <path fill="#DCDDE4" d="M411 498h1c.25 2.25.25 2.25 0 5-2 2.3125-2 2.3125-4 4l-7-2v-1l3.3125-.75c3.79352537-1.2859408 4.70178094-1.94046823 6.6875-5.25Z"/>
  <path fill="#ECA146" d="m612 431 1 4c-1.09445838.86657116-2.20097781 1.71792724-3.3125 2.5625l-1.86328125 1.44140625L606 440l-3-1 2.25-1.75c2.41087643-1.97253526 4.59042701-4.01044282 6.75-6.25Z"/>
  <path fill="#E9C3D2" d="m580 405 1.75 2.25c2.12476202 2.75699679 2.12476202 2.75699679 4.5625 4.75L588 414c-.25 2.75-.25 2.75-1 5h-1v-6l-4 1-1-6-3-1 2-2Z"/>
  <path fill="#E9805E" d="M506 581c3.00617269 3.00617269 2.59585316 5.82381598 3 10h4l-1 3v-2c-3.11785113.64644661-3.11785113.64644661-4 3h-2v-4h2l-2-10Z"/>
  <path fill="#F1F2F0" d="M502 585h4l-1 6-5-1c.875-3.875.875-3.875 2-5Z"/>
  <path fill="#CD4D8B" d="m499 525 3 1-9 10-1-3 2-3h2l.9375-1.9375C498 526 498 526 499 525Z"/>
  <path fill="#B8C2D6" d="M503 337c3.125-.1875 3.125-.1875 6 0v2l5-2c-1.62339805 1.70884005-3.29319053 3.37446717-5 5h-2v-3l-6 1 2-3Z"/>
  <path fill="#BB2A6E" d="M463 542c1 2 1 2 .0625 5.125L462 550h-2v5c-1.125-1.6875-1.125-1.6875-2-4 .9790049-3.5600178 2.6822885-6.15553589 5-9Z"/>
  <path fill="#F0C293" d="M586 442c0 4.26861765-1.65525557 6.48288335-4 10-2.625 1.1875-2.625 1.1875-5 2 1.44424635-3.23861303 3.25772247-5.61969163 5.625-8.25l1.9140625-2.140625L586 442Z"/>
  <path fill="#EFA243" d="m623 420 1 2c-.77734375 1.7265625-.77734375 1.7265625-1.9375 3.625L620 429l-4-1c1.49097658-3.7952131 3.75700849-5.61042731 7-8Z"/>
  <path fill="#E63C79" d="m553 380-1 6 6-1v2c-6.75.125-6.75.125-9-1v-3l-2-1c3.75-2 3.75-2 6-2Z"/>
  <path fill="#B6BFD4" d="m531 330 4 2-2 1c-1.13350534 2.01669827-1.13350534 2.01669827-2 4h-2c-.6875-1.8125-.6875-1.8125-1-4 1.4375-1.75 1.4375-1.75 3-3Z"/>
  <path fill="#EBD8CD" d="m505 583 2 1c.40729228 2.32156597.74438677 4.6568787 1 7-6.75 1-6.75 1-9 1v-5l1 3 5 1v-8Z"/>
  <path fill="#C12973" d="m488 528 2 3-9 8-2-1 9-10Z"/>
  <path fill="#D59DB9" d="m457 522 2 1c-3.44615385 4.8-3.44615385 4.8-6.25 5.8125L451 529v-3c3-2.1875 3-2.1875 6-4Z"/>
  <path fill="#CF4489" d="m521 499 1 3c-1.43359375 2.04296875-1.43359375 2.04296875-3.4375 4.1875l-1.99609375 2.16796875L515 510l-2-2 1.9375-.75c2.23799168-1.03826429 2.23799168-1.03826429 2.625-3.1875L518 502c1.5625-1.75 1.5625-1.75 3-3Z"/>
  <path fill="#D84D8E" d="m531 487 3 1-8 9-2-2 2-3h3l.4375-1.9375C530 488 530 488 531 487Z"/>
  <path fill="#EBE7E7" d="m575 395 6 1v2l4 1-6 2v-3l-4 1v-4Z"/>
  <path fill="#FBF7F2" d="m510 608 6 2-1 4 2 1c-2.375-.3125-2.375-.3125-5-1-2-3-2-3-2-6Z"/>
  <path fill="#F4F5F3" d="m478 573 3 1v2l2 1-2.4375.875c-2.6951468.85762568-2.6951468.85762568-3.5625 3.125h-2c.54723683-3.37462715 1.0549-5.08235 3-8Z"/>
  <path fill="#2E2465" d="m396 484-.5 1.75c-.64462031 2.51664369-.64462031 2.51664369-.5 6.25l-3-1c-1.1875-2.5625-1.1875-2.5625-2-5 3.75-2 3.75-2 6-2Z"/>
  <path fill="#EB9B3C" d="M632 436h2l-1 7-4-1c.57344937-2.86724686.8614515-3.8614515 3-6Z"/>
  <path fill="#F3CBB9" d="M519 607v6l-4 1-1-5c3-2 3-2 5-2Z"/>
  <path fill="#ECD2C4" d="M509 592h3c-.56371414 3.26954202-1.49962266 4.82575883-4 7v-3l-4 1v-2h4l1-3Z"/>
  <path fill="#C02672" d="m491 520 2 1-9 10c0-3.77910478.99703962-4.46106101 3.5-7.1875l1.96875-2.16796875L491 520Z"/>
  <path fill="#D472A5" d="m450 493 1 4c-2.4375 2.75-2.4375 2.75-5 5l-3-1 7-8Z"/>
  <path fill="#F4EEE5" d="m622 418 3 1-1 6-2-1v-2l-4 2c1.15173355-2.46800047 2.04783565-4.04783565 4-6Z"/>
  <path fill="#EBCED8" d="m582 380 1 2h4v2l-5 1-1 6h-1c-1.35384615-6.4-1.35384615-6.4.4375-9.4375L582 380Z"/>
  <path fill="#DA6F4D" d="M495 592h4l-1 5h-4l1-5Z"/>
  <path fill="#EC6138" d="M535 577h2c-1.38188453 3.21043882-2.92421903 5.04936365-5.625 7.25l-1.9140625 1.578125L528 587l1-4h2v-2h2v-2h2v-2Z"/>
  <path fill="#EB5830" d="M514 573c0 3 0 3-2 6h-2l-1 4h-2c.57575664-3.35250701 1.59306263-4.93818629 4.0625-7.25l1.66015625-1.578125L514 573Z"/>
  <path fill="#CC86AA" d="m435 514 2 4c-2.12780579 2.34058637-4.11562221 3.70700306-7 5 .57352893-3.87132028 2.48704352-6.08172796 5-9Z"/>
  <path fill="#E2D2D7" d="M574 367h4l-1 3v-2l-2.9375 2.375-1.65234375 1.3359375C570.86733563 372.9666391 570.86733563 372.9666391 570 375l-3-1v-2c1.64333504-1.03789581 3.31243867-2.03567924 5-3l2-2Z"/>
  <path fill="#F1DFD4" d="M510 607c-.3125 1.875-.3125 1.875-1 4-3 2-3 2-7 2 1.55379906-3.10759812 4.39979576-6 8-6Z"/>
  <path fill="#EA9F84" d="M494.1875 583.375 496 584c-.8125 1.9375-.8125 1.9375-2 4l-3 1v-3l-2-1c3-2 3-2 5.1875-1.625Z"/>
  <path fill="#E2CBD3" d="m479 537-.5 1.5c-.70688818 3.53444089-.56005155 6.89690701-.5 10.5h-2c-.98120464-3.05263664-.98120464-4.94736336 0-8l-2-1c2.75-3 2.75-3 5-3Z"/>
  <path fill="#F0BD82" d="M634 467h1c-.49230769 6.4-.49230769 6.4-3.0625 9.4375L630 478c.60698743-4.12751449 2.03810791-7.3321148 4-11Z"/>
  <path fill="#E7C8D2" d="M581 371h2v7l-4-1c.875-4.875.875-4.875 2-6Z"/>
  <path fill="#EEE7E1" d="M479 577c2.125.375 2.125.375 4 1l-5 5c-.625-1.875-.625-1.875-1-4l2-2Z"/>
  <path fill="#DEB7C2" d="M445 560h6v3l-6 1v-4Z"/>
  <path fill="#DE4F8E" d="m552 462 3 1-6 7-1-4c1.9375-2.25 1.9375-2.25 4-4Z"/>
  <path fill="#E26C96" d="M577 398h2v3l4-1c-.3125 1.875-.3125 1.875-1 4l-3 2-2-8Z"/>
  <path fill="#6E6895" d="m392 491 3 2h-2l-1 3c-2.0625.6875-2.0625.6875-4 1 .3125-1.875.3125-1.875 1-4l3-2Z"/>
  <path fill="#D1D7E0" d="M399 470c0 3.99904969-1.72586967 5.80200422-4 9l-2-3 6-6Z"/>
  <path fill="#E86C43" d="M506 602h4v2l2 1-5 1-1-4Z"/>
  <path fill="#EA6741" d="M488 562h2c-.3125 2.375-.3125 2.375-1 5l-3 2c0-4 0-4 2-7Z"/>
  <path fill="#CE6994" d="m454 556 4 1-2 4h-3l1-5Z"/>
  <path fill="#C6397C" d="M461 538c2.25.25 2.25.25 4 1-1.27596315 2.55192629-2.37156116 2.99500868-5 4l-3-1c1.75-2.0625 1.75-2.0625 4-4Z"/>
  <path fill="#C8C7D3" d="M420 496h2v3c-3 2.1875-3 2.1875-6 4l-2-1 6-6Z"/>
  <path fill="#7F789D" d="m424 492 5 1c-1.62339805 1.70884005-3.29319053 3.37446717-5 5h-2l-1-3h2l1-3Z"/>
  <path fill="#DD8AA7" d="m586 394 1 4h-6v-3l5-1Z"/>
  <path fill="#DA4B81" d="M577 368c-1.15173355 2.46800047-2.04783565 4.04783565-4 6l-3 1c3.13793103-7 3.13793103-7 7-7Z"/>
  <path fill="#EED5C5" d="M526 589h2l-1 6-5-1c1.28062485-1.7074998 2.61767557-3.37373596 4-5Z"/>
  <path fill="#D18AAD" d="M441 535c-2.8125 2.0625-2.8125 2.0625-6 4l-3-1h2v-3c4.75-1.125 4.75-1.125 7 0Z"/>
  <path fill="#322566" d="M415 495h1v6l-3 1c-.125-2.375-.125-2.375 0-5l2-2Z"/>
  <path fill="#F0F0F0" d="M382 493h4l-2 7h-1l-1-7Z"/>
  <path fill="#F0B886" d="m569 462 1 3c-1.4375 2.1875-1.4375 2.1875-3 4l-3-1 5-6Z"/>
  <path fill="#EEA549" d="m626 451 2 1c.125 2.875.125 2.875 0 6l-2 2c-.93423645-3.01031744-1.04449911-3.86650268 0-7l-2-1 2-1Z"/>
  <path fill="#EF962B" d="m613 430 5 1-1 4-4-1v-4Z"/>
  <path fill="#EAB77C" d="M610 418h1v6h-2c-.042721-1.66611905-.04063832-3.33382885 0-5l1-1Z"/>
  <path fill="#6B81AA" d="m541 299 2 1-1 3h-3l2-4Z"/>
</svg>
